<svg xmlns="http://www.w3.org/2000/svg" width="487" height="137" fill="none"><g fill="#648D13" clip-path="url(#a)"><path d="m32.586 79.55.09.09v.09h.18l.09.09h.18l.09-.09h.09l-.36-.27zm-.808.36.09.089v.09h.18v-.18l.09-.18-.36-.089zm-3.564.179.599-.09v-.09h-.33zm-7.698 1.704-.45.09v.18l-.089.09.27-.09.359-.18h-.09zm-5.72-3.2v.27l.449-.18.18.09h.09l-.09-.449zm5.271 2.931h.27l.09-.18-.45-.448v.18l-.18.179.27.18z"/><path d="m54.57 78.055.09-1.346v-1.346l-.09-1.345-.27-1.077-.628-.538-1.348-.18-1.527-.18-1.438-.089-1.977.09h-1.258l-1.977-.09h-4.552l-5.002-.18h-6.44l-1.347.09-1.977.09-1.258.09-1.977.18h-4.462l-1.977.089h-1.258l-1.977-.09H7.458l-1.977-.09H4.223l-1.977.09-1.078.09-.54.628-.179 1.166-.09 1.346v1.256l.09 1.346v1.346l-.09 1.346v1.345l.09 1.346.18 1.166.629.629.988.269 1.977.269 1.348.09 5.002-.18h7.787l1.977.09h1.258l1.976-.09h1.258l1.977-.18h1.258l1.977.09h4.552l5.002.18h1.348l1.977-.09h1.257l1.977-.18h1.258l1.977.18 2.935-.18 1.348-.269.809-.538.18-1.166.089-1.346-.18-2.692zm-15.724 2.034.54-.27.538.36-.539.09-.539-.09zm-.45-.27v.09l-.269-.09-.18-.179h.27zm-.718-4.994h.36l.09.18-.09.09h-.18l-.27-.18zm-1.438 4.546.18.18-.09.358-.18.18-.18-.628zm-.988-3.11.09.18v.178l-.18-.179zm-.36.538.36.18v.269h-.27l-.18-.18h-.449zm-.628-1.525v-.09l.27.18-.09.09h-.18l-.09-.09zm-.51 1.704.09-.09.27.18-.09.09h-.27zm.09.987h.36l.18.18-.09.18-.27.089-.18-.09-.09-.18zm-.359-1.615.09.539-.36-.36-.359.27-.27-.27zm-1.078 1.884-.09.449h-.09l-.27-.18.09-.269zm-.72-.717-.448-.09.718-.09zm-1.077-1.525.808.179.09.538-.36-.18h-.718l-.09-.358zm0 .986.09.09v.27h-.36l-.09-.09zm-.09.718.18.18-.09.538.09.18-.09.179h-.18l-.45-.36-.269-.358v-.18l.45-.269zm0 1.406-.36.359-.898-.449h.988zm-1.258-3.02h.09l.36.268v.27l-.09.09.09.268-.27.18-.18-.18.09-.269v-.18l-.18-.179zm-2.666.986.63.18.179.538-.18.269-.629-.359-.18-.09-.18-.358zm-1.168-.718h.45l.18.18-.27.628h-.36zm-2.156-.897h.18l.09.09-.09.18-.18.089-.18-.18zm-2.037-1.435 1.078.897-.09.359h-.18l-.09-.18-.448-.538-.809-.09zm.36 1.615v.359l-.18-.09.09-.09v-.18zm-1.438-.628h.09l.18.269-.09.269-.27-.449zm-3.654-.449.09.09h.449l.27.269v.09h-.27l-.629-.27zm-.54 1.077-.179.179-.45-.09-.179-.18.09-.268.539.09zm0 1.166v.09l-.09.09-.718-.45h.45zm-.628-2.333h.27l-.18.18h-.36zm-2.157-.628h.27v.18l-.18.09-.18-.18zm-1.078-.09h.27l.09.18-.09.09h-.09l-.27-.18zm-1.587 7.328-.18.09-.629-.18-.54.18.54-.988-.629-.628h.54l.628.449v.18l-.27.448.54.27zm-.09-5.712-.719.179-.27.448.09.09h.63l-.36.27-.54-.09-.179-.18h-.45l1.708-.897-.27-.538.81.18zm1.078 5.442-.18.27v.269l-.18.18-.179-.18.09-.18.27-.09-.18-.358-.27-.09-.09-.27.27-.179h.36l.09.09-.09.18zm-.09-3.738-.719-.09.72-.179.09.09zm.6 3.738.449-.18v.54l-.27.089-.27-.18zm.09 2.243.269-.448.27.807zm.448-.359-.27-.358.72.359zm.72-3.738-.27-.18.18.808-.09.27h-.45l-.45-.36v-.269l.27-.18.54-.268-.09-.27.18-.269.359.27.09.358zm-.99-.807v-.27l.18-.269h.18zm2.786 5.353-.449-.18.54-.448.089-.449.27.36zm.54-3.23-.989.27-.27-.09v-.36l.81-.358.089-.539-.45-.269h-.269l-.27-.18.45-.358-.09-.27h-.809l-.18-.538-.269.45-.09-.45.18-.358h.36l.179-.18-.18-.538.18-.27-.45-.358v-.27H12.28l-.18-.627.36-.27h1.078l.449.718.27.09.27-.09-.09.539-.18.179v.449l.449.09.09.358.27.27-.27.717.36.18.179-.36.449-.09.27.27zm.808 2.422-.09.09-.18-.18.09-.089h.09l.18.18zm5.271.09-.898-.09-.36.18-.449-.09-.539-.718.09-.269-.18-.18h-.27l-.18 1.257h.18v.09l-.628-.09-1.528-2.422 1.887-.628-.09-.36-2.066.18.09-.538h-.36v-.18l.09-.09.988-.09.09-.538.27-.269-.09-.18-.63-.268.9-1.705-.72-.18v-.268h.72l.269.448-.09.538h.27l.719-.538.898.09.09.18-.63.089.09.538.27.09.27-.18.18.09.09.36.09.089h.269l.36-.449.179.449 2.336.359.27-.27h.09l-1.618-.448.45-.18.449.09.27-.18.09-.358.448.538h-.09l.36.09.18.18-.72 1.076v.09l.09.09-.09.448-.808-.09.54-.628-1.528.09-.09.449-.27.18h-.09v.179l.09.09v.089l.18-.18h.18l.36.27-.45.359v.09h-.09l.09.448-.27-.09-.27-.628-1.077-.538.18-.27v-.358h-.63l-.18.18-.538-.36-.09-.538-.72.18-.269.269.36.269.09.359 1.078.897-.09.449-.09.09v.268l.45.449h.269l.18-.27-.09-.537.718-.09-.09.987.27.538h-.09l-.18.718.36.269.45.448zm2.935-3.828h-.09l-.09.09h-.179v-.09l.18-.18zm-2.935 3.2h-.18l-.09-.18h.45zm2.217-.18-.18.18-.45-.18-.448-.627-1.348.269 1.078-1.077v-.359l.629-.358.719.179-.72.538-.179.808h.54l.359-.27v-.269l.18-.269v-.09l.269-.09.09.09v.18l-.18.09-.09.807-.27.18zm1.348 1.347-.45-.27-.09.09-.629-.27.36-.089.36.18h.988zm-.54-1.974.09-.09.36.18v.09l-.18.089-.18-.09zm1.977 2.422v-.448l.18-.27.09.36zm2.127-.448-.27.179-1.078-.18.36-.986v.179l.628.538h.36zm.09-.898-.27.18h-.09l.09-.27.18-.09.09.09zm.539.09h-.09l-.09-.09.09-.269.27-.18.09.36zm-.09-1.077.09-.09.18.27-.18.18zm3.145.27h.359l.45.269h-.54zm1.168 2.243-.27-.09-.27.09-.18-.18.27-.18h.45l.09.27zm1.138-1.436h-.18l-.18-.18v-.09h.27l.09.09zm2.246-.538-.36.269-.808-.09.18.18-.27.269-.09-.449-1.258-.628.72-1.256-.18-.27h-.81l-.179.27-.27.09-.539.718-.27.09-.358-.45v-.268h-.45l-.27.358-.898-.358-.45.269.18.448-.359.09-.36-.18-.448.09-.63-.628-.359.449-.629-.449-.18-.448.27-.36-.988-.807-.18.27-.36.09-.18 1.076.54-.09.09-.09h.18l-.09.628.27.09.179-.09.36.27-.81.358-.988-.179.27-.897-.27-.09v-.18l-.36-.358-.538-.09-.09.18-.989-.36 1.348-.179v-.718l.36-.179-.09-.09v-.09l-.36-.09-.449.36-.18-.09-.09-.27.27-.179h.18l.09-.18.898-.089.36.538.449.18.09.359h.09v.09l.718-.629.36.18-.36.538.09.36h.54l.269-.629.27-.09.09.09v.18l-.27.179v.359h.27l.449.538-.18.36 1.527-.09v-.45l1.887-.627.809.18.18.179h.36l.089.269 1.168.09.36.717.539.09-.27.18h-.27l-.18.627 1.169.449v-.27h.27l.18.18zm.18-1.436-.18-.269v-1.256l.45.359-.27.449.45.179zm.629 1.705-.09-.449.539.539.18-.18.09.359zm.988-.987.09-.09.27.09v.18h-.18zm.899.897h-.27l-.27-.269v-.359l1.259-.718zm1.228-.269-.18.09-.09-.09h-.09l.18-.27.18.18zM9.375 15.97l.18.448-.09.36.628-.18v-.18l-.36-.538zm-2.666 5.981.27-.18-.36-.179-.09.18-.27.09v.269l.27.09zm1.947 9.361v-.27l-.18-.328.09.598zM5.54 21.861l-.09-.09.36.629.09-.09v-.359l-.09-.09z"/><path d="M.629 63.192v.897l.27.269.539.18 4.462.358h5.541l4.553.09 1.258-.09.718-.269.27-.448v-.987l.09-4.905v-1.435l.36-4.815V50.6l-.27-4.815V38.01l.18-4.815V31.76l-.09-4.815V25.51l.09-4.905V19.17l-.09-4.815V5.622l-.09-1.435-.18-2.333-.09-.987-.18-.538-.988-.18h-5.54L7.337.33H5.9L3.744.239 2.396.33h-.719L.78.419.24.778l-.269.986.18 4.905v7.686L.06 19.17v1.435l.09 4.905v7.686l.09 4.815v1.435l.27 4.905-.09 1.435-.27 4.815-.09 1.436.27 4.815v1.345l.09 1.346v1.436l.179 2.243zm3.025-2.602h-.27l.27-.27.27.09zm.988-40.792 2.756-1.525.988 2.153.36-.18-.27-2.242.27-.09.27.18.089-.09v-.27l.18-.09.18.18.18 1.077h.628l.36.269.269-.09.27-.718 1.617.898.809-.808h.27v.808l-.54.358-.629-.09-.09.27.809.807-.09.898-.18.179-.18-.27v-.448h-.449l-.27.18-.09.359.27.179-.09.18-.539.269v.269l.54.448-.45.18-.449 2.602.27.269.449-.539.18-1.166.27.449-.09.538.18.359h.538l-.988 1.076-.54-.179-.269-.449-.719-.179-.09.09-.628-.09.09-.808.808.45.09-1.078-.27-.538-.629-.09-.18-.269.09-.09h-.27l-.089.09.09.36-.36.448-.628-.628-.54.18.18-.36.719-.269.719-1.256.27.27h.449v-.718l-.27-.27.27-.269v-.09l.808-.358v-.36l-.539-.627-.36.359-.448.09-.36.358-.809.987-.988-.27-.54.898.36.18.72-.18.179.27-.09.448-.45.269-.718-.18-.719.27v-.09l-.809-.18-.898.718v.18h-.18l-.09-1.884.54-.449h.718l.18-.27v-.268l-.719-.27-.809.18v.09l-.09.09-.09-.09.27-.987zm-.18-1.944.09-.18h.27v.09l-.18.18-.09-.09zm.9-8.673.448-.628.45.18.18.269-.54.359-.09.628-.359.448.18.897 1.258.539.09-.18.269-.09.27.27.09.359-.18.18h-.72l-.269-.18-.718.09-.18-.629-.27-.18-.27-1.255-.359.269h-.18l-.18-.27.45-.537h.36l.449.09.09-.45zm.179-1.944v-.359l.27.09.09.27-.09.089zm3.384 3.11.09.36-.27.179h-.09v.09l-.628-.27-.09-.179-.54.538-.628-.359-.18.628h-.36l-.09-.179.27-.718-.27-.538 1.259.538.449-.359.27-.358v.538zm1.348 3.918 1.078.09v.359l.18.269.629-.27.36.18.539-.538h.269l.09-1.166-.18-.18.18-.18.629-.089.36.359v1.256l-.81.538-.09.27.09.358h-.269l-.09-.18h-.27l-.269-.179-.629.09-.09.449-.719.448-.808-.269-.27.359.45.27.09.448-.36.269-2.786-.27v-.089l-.449-1.077.18-.269h.45l.538.808.63.09.359-.45-.09-.358.18-.27.359.09.18.36.27-.09v-.898h.089v-.09l.09.09.45-.269zm1.977-7.387-.27.18v-.09l-.09-.09.27-.179v.09zm-.09 21.862-.09.718-.719.269-.36-.18.9-1.166zm-.18-1.166.36-.18.719.09v.448l-.18.27-.809-.36zm.09 5.711-.09-.179.18-.27.36.36-.18.18zm.27 15.522.36.269v.27l-.81-.45zm.09-12.142.18-.09.179.18-.18.269-.18-.18zm0-4.456-.18-.27.18-.179.539.09.27-.27.359.18-.36.36h-.36zm.898-9.002v-.18l.45.09-.09.09v.09zm-.45 12.5.27-.358.27.987-.63.09.45-.449zm0-1.524.27-1.167.36-.09.27.27-.18.807zm.81-9.181.18-.09.179.09v.269l-.09.09-.18-.09zm.09-3.14.269-.27h.36l.09.09v.09l-.36.18zm.09-4.995-.36.18-.27-.45.09-.268.27-.18.27.09zm.418 1.615v-.27l.27-.717.27.09-.09.628-.27.269zm-1.946-2.243v.449l-.27.359-.36-.09zm-4.463-4.097.27-.09.18.18-.09.448.18.27-.09.269h-.18l-.27-.27.09-.358zm1.857 2.303-.45.09-.09-.27.54-.448.27.18zm-1.408-.18-.27-.18v-.538l.36-.448h.36l.27.269.179.27zm.69-4.635-.36.09v-.36l.27-.09.179.18zm-1.948 3.858H6.35l-.18-.27.18-.269.36.09.09.09h.09zm-2.246-.18-.36.897v-.538zm5.092 13.1v.089l-.18.18-.18-.18.18-.18zm-2.936-.36.899.18.09.18-.09.089v.09h-.27l-.09-.18-1.078-.09-.18-.269H5.9l-.27-.18.18-.179v-.269l.809-.538-.09-.449-.27-.269v-.807l1.348 1.166h.54l.359.718-.18.718-.719-.718-.988-.18zm.54 3.948-.18.09-.09.269-.27-.18-.09-1.794h.45l.36.09.628.897v.18l-.808-.09-.09.358zm-1.169 2.213.27-.18.27.09v.18zm.27 3.32v.448l-.27.449v-.539zm-.18-8.135.09-.359.27-.09-.09.36-.09.089zm-.718 4.187-.36-.09-.09-.18.09-.089.27.09zm-.18-7.925v-.18l.18-.09.09.27v.09l-.09.09zm-1.078 3.2.27-.539v1.884l-.45-.538.27-.538zm.27 2.512-.45.09-.54-.27zm-.72 7.656-.09-.718.18-.27.18.18v.18l.09.448zm.18-5.802.18-.718.629-.359.629.27-.36.09-.449.717-.09.27-.36.089zm.45 24.912.269-.449.45.538-.36.36-.27-.18zm.718 6.968h-.18l-.18-.18.36-.269.09.09zm.18-30.983v-.09l.36.09.179.27-.36.09-.269-.27zm.539 5.623v.269h-.27l-.09-.09.18-.18zm-.45 1.435.63-.09.718-1.435.989.718h.629l.27-.18v-.897l-1.438-1.077-.09-.269.27-.359.628-.09v-.269l-.449-.448.36-1.077-.09-.269-.27-.18-.18.18h-.359l-.09-.359.18-.359-.09-.538.719-.718-.63-.359.09-.269.99-.628.448.18.989-.987-.45-.718-.988.09-.27-.449.63-.449.09-.538-.27-.18.45-.986v.897l.358.449.899.09.18.268h.09l.09-.09.09-.358-.36-.449.36-.359.538.539.09.987-.629.448-.18.449-.539.18.27.627.45.27-.18.358-.63-.358-.539.09v.627l.899.27.09.358h-.27l-.18-.18-.539-.089-.27.538-.898.539.27.269-.18.449.18.538.54-.09.808 2.692-.36.538.09.359-.36.18-.09 1.255-.808.36-.18.717-.18-.628-.808-.18-.45 1.346h.18l.09.18-.449.269-.27-.18v-1.166l-.269.27zm4.284-7.417v1.256l-.18.18-.45-.36v-.178h.18zm-.18 7.776-.18.18-.539-.09-.18-.18.27-.18.18-.089.27.09zm-3.295 3.918v-.27l.36-.358.449.09.09-.36.36-.09v.09l-.18.27-.27.09.899 1.255zm.72 1.166-.18.18h-.18v-.36zm-.99-3.2.63-.18-.63.629.09.179.09.09-.359.09zm0 11.334-.09-.358.99.269.359-.18.27.27-.27.269-.45-.09-.09.09H6.44zm2.397 5.982-1.078.987h-.27l-.45-.629.09-.358.27-.27.989.09.18-.09.269.09zm.36-15.103-.09-1.256h.18l.359.628zm.538-1.944-.18.27h-.09l-.089-.09.09-.27.27-.179zm.36-.807-.54-.27-.269.539-.629-.449.27-.18h.629l.988-.179zm.449-7.776.809-.807.27-.09.359.538-.27.628-1.168-.09zm1.258 20.785.09.09.09.448-.27.09-.18-.09-.09-.18zm-.45-16.598-.179-.359.09-.18.18-.09.18.09.09.45-.18.179zm-.628-2.303.18-.18.359.09v.27h-.54zm2.156 24.015-.629.09-.449.807-.629.27-.18-.18 1.528-1.615.27.09.18.09.089.268zm.09-20.725h-.27l-.09-.27.27-.268v-.36l.27.539zm.719-.09h.27l-.27.18h-.27zm.27 22.13h-.18l-.18-.179v-.09l.18-.09.18.09.09.18zm1.497-3.2-.18.18-.36-.18-.448.18-.45-.269.54-.27.18-.358.448-.09.27.36zm-.629-19.827v-.18l.18-.09.18.18-.18.27zm.988 3.948-.18.09-.179-.09.09-.36.18-.089.09.09zm-.18-28.471.18-.09.09.09v.27l-.18.089-.18-.18zm-.09 1.166.18-.09.18.18v.18l-.18.09-.18-.09zm-.089 8.284.629.539-1.168 1.166-.27.09-.09-.09v-.18l.81-.717zm-.54-6.16.27.179v.359l-.27-.18zm-.448-9.182.27.09.089.27-.36.179-.18-.09-.089-.27zm.18 3.649-.18.897-1.168-1.435-.36-.09-.09.09v.717l-.36-.448.27-1.256 1.258 1.794zM11.53 3.11l.09.18-.18.269zm.45 1.436.628.269.09-.09.54.36-.45.089-.27-.18-.539.09-.539-.09zm-.54 2.332v.09l-.18.09-.359-.09-.27-.448zm-.36 1.167v.717l-.628.27zm-.628 2.93.808.45.09.268.09-.359.36.36v.358l-.27.09-.09-.359-.36.18-.628-.09-.27-.628zm.09 2.154.27.18v.179l-.72-.36zm-.899-6.52.27-.09.09.09-.18.27-.18-.18zm-.18 1.167.18-.18v.27l-.09.089-.09-.09zm-.359-2.692.18.27v.358h-.09l-.18.09-.09-.36zm-.958-.18h.09l.269.18-.09.359h-.36zm.6 1.796h.27l.269.359v.359l-1.258.807zM7.697 3.38h.18l.09.18-.18.18.09.717-.18.18-.36.09-.448-.27zm-.449 4.127.36-.358.359.269-.989.18-.09-.54zm0 1.047h.09l.18.27v.179l-.899.269-.09-.09zm-.809-2.482-.09.09h-.27l-.089-.09.09-.18h.36zm-.27-3.29.09.09-.09.18-.628-.18zm-.538.778.718.269-.539.897-.18-.897h-.359zm-.54 4.127.36.18v.268l-.809.539-.09.359-.449.18v-.09l.18-.45.629-.358zm-.898-2.692h.09l.09.09-.18.27-.18-.18zm-.18 8.225.54.269-.989.359zm-.36 2.661.27.449.899.269-.45.359-.808-.538zM2.517 53.293v-.09l.27-.359.449.18.09.897.269.538-.899-.27-.27-.806z"/><path d="m9.105 35.798-.09.09v.179l.18.18.27-.36h-.09l-.09-.448-.18.18zm0-.808.09-.359h-.18l-.09-.09-.18.18.09.27zm59.033 28.56 1.348-.448 1.437-.449 1.348-.628 1.258-.628 1.168-.807 2.247-1.615.988-.987 1.438-1.615.808-1.166.899-1.705.539-1.256.629-1.884.27-1.346.18-2.332.089-1.436-.09-.807-.18-1.526-.359-1.525-.45-1.435-.359-.808-.629-1.346-.808-1.345-.899-1.257-.45-.717-1.077-1.167-1.079-.986-.808-.808-.27-.718.27-.628 2.156-2.153.989-1.166.808-1.346.63-1.346.538-2.063.27-1.526.09-1.525-.09-1.435-.36-2.333-.27-1.435-.448-1.346-.54-1.256-.988-1.795-.719-1.256-.988-1.256-1.078-1.076-1.528-1.256-1.168-.808-1.707-.987-1.348-.538-1.977-.718-1.437-.359-1.528-.269-1.527-.18L58.194.39h-1.437L51.845.3h-1.438l-4.822.18-7.787-.45-4.912.18h-4.822L26.626.3l-1.258.27-.898.538-.36 1.076v2.153l.27 2.692.09 1.435.36 4.726-.09 1.435-.27 4.725-.09 1.436.09 4.725v1.435l.18 4.726v1.435l-.36 4.725v3.828l-.09 2.333v1.525l.09.808.09 1.525.09 2.332.09 1.436-.27 4.725v1.525l-.09.718v1.436l-.09 1.256.09 1.345.18.987.45.449.718.27 1.258.178 1.438.18h3.384l6.26-.09h1.437l5.002.27h7.787l4.912-.18h1.438l2.156-.18 1.438-.09 2.067-.268 4.013-.808zm6.62-52.126.089.09v.18l-.09.089-.18-.09-.09-.269zm-1.708 2.243.27.18.09.269-.36-.18zm-1.677 8.464-.18.269-.36-.09-.09-.449.09-.09v-.09l.27-.268zm-1.887-11.963.27-.09 1.167.539.18.448-.18.18v.18l-.09.089v.18l-.538.089-.27-.18-.27-.986-.27-.18zm-.899 4.187.27-.27.45.09-.09.36-.18.179h-.54zm-.18 6.878v.36l-.269.089-.09-.18.09-.358-.36-.449.45.09zm-1.527-4.097h.18l.898-.807.18.897-.629.538-.629-.18zm-1.498-4.635.27-.27v.27l-.09.09h-.09l-.09.09zm-.359 1.435h.09l.27-.18v.18l.27.449-.27.538h-.09l-.27-.269.09-.628h-.18zm-2.246-6.788.539.09.719-.718h.629v.09l.09.089-1.798 1.077-.269-.09-.09-.359zm-.719-1.526.18.09.18.27-.09.089-.36-.18zm-2.126 2.692.27-.09.269.18h.449l.36.358h-.27l-.54.36h-.359l-.27-.36zm-4.673 0 .09-.09.36.18.269.448-.45-.09-.269-.269zM42.141 19.559l.27-2.154.269-1.166.36-.449.538-.269.809-.18.899-.089h1.168l4.373-.269 1.347.09 2.067.18 1.438.179h.808l1.528.179.629.09 1.347.359.54.269 1.258.897.808 1.077.27 1.256v1.525l-.27 1.166-.539.897-.629.808-.898.628-1.079.448-1.168.27h-1.977l-3.025-.18-2.066-.09-1.528-.09-3.025.18h-2.066l-1.078-.09-.72-.358-.359-.628-.18-.987-.09-1.436-.09-.628.09-1.435zM61.07 31.67h.629l.18.358-.18.18-.27-.09-.09-.269h-.27l-.09-.09zm-.27-3.38.09-.18.27.09v.27l-.18.09zm-.779.628-.09.27h-.359l-.18-.45.36-.538v.45zm-.539 2.124h.18l.27.179-.09.18h-.18l-.27-.18zm.27 2.87h.36l.538.27-.27.269-.359.09-.36-.27zm-1.348-2.332-.09.269h-.629l-.09-.27.09-.268.27-.09.36.09zm-3.654 1.794-.09-.718.45-.09-.27-.807h-2.606l.63-.448 3.384.448-.09.897.27.18v.718h-.36l-.45-.27-.898.09zm.869 1.077-.18.359-.54-.27-.179-.358.36-.09.359.09zm-4.463-.18v-.09l-.629-.179v.09h.09l.36.359h-.72l-.09-.538 1.348-2.243.27.09-.18 1.614.18.18-.09.538.27.628h.359l.18.359-.899.359-.18-.09-.09-.18.18-.09v-.358zm-1.348-.538-.629-.09-.09-.538.54-.27.359.18.539.18zm2.516-.449v-.358l.18-.09.18.09.09.18-.09.178-.18.09zm.719.629h.45l.179.269v.269l-.54.09-.538-.27zm.45-1.346.179-.36.09-.089.09.27-.09.179zm-1.08-3.38.18.09-.09 1.346-.538-.718zm-.538-.807v-.27l.449.54h-.27zm2.605 2.333.09.269-.27.09-.988-.18.09-.718.27.36zm-.539-1.256v-.09l.18-.09.18.18.09.358-.27-.09zm.959-1.526.719.18.27.987-.45-.09.18-.359zm1.168 2.423.36-.36.718.18v.27h-.18l-.27-.27zm1.438 1.764v.27h-.09l-.09.09-.18-.36zm-10.004-2.213-1.438-.718-.449.27-.18.269-.18-.36.63-.807.898.36.36-.719.27.09.089.18-.27.807zm-2.965-1.794v-.449l.18-.18.359.18.45-.18.359.27-.27.09-.45.538h-.359zm.18.987v.09l-.18.09-.36-.09v-.36h.36zm-2.666.807-.09.449-.45.09-.09-.18.09-.18-.09-.358.09-.27.36.09zm-.719-2.87.09-.09.18.09.09.448-.09.448-.36-.448zm0 1.793-.36.808-.898.449-.27.628.18.179.809-.18-.45.539-.628-.09-.18-.18-.629 1.077.09.718-.36.538h.09l-.629.18v-.09h-.539l-.36-.359 1.438-.897-.09-2.333.72.808.18-.27 1.257-.896-.45-.718zm-1.348 3.021-.629.449-.36-.18.36-.448.54-.09zm-1.977 0 .09-.09h.27l.09.18-.09.18-.36-.09zm-.329-1.675.45-.09.269.27-.09.359zm1.947-.807-.09.359-.27.09-1.078-.718h.09l-1.078-.09.45-.449.628.449.629-.27.54.27zm-2.037-1.436 1.168-.18.45.27-1.528.27zm.36-8.224.359.27-.27.717-.539.27-.09-.45.09-.538zm.06 2.781-.18 1.436-.63-.538v-.718l.36-.27zm-.78-9.45.45.359v.807l-.27.18-.359-.18-.09-.448zm1.05 11.693.089-.448.45-.36.538 1.167-.09.36-.18.089-.179-.18-.45-.09-.449.36h-.09l-.09.179-.179.09v.359l.45-.18v.987l-.72.09-.359-.539-2.695-1.256.09-.269 1.347.09.809.09.18-.18zM34.802 22.4l.36-.09.269.09v.359l-.54-.18zm1.078 1.615.09-.18.539-.09.09.36-.09.179h-.54zm-.27-5.264h.989l-.18 2.243-.36.27-.538-.09-.27-.539-.988.449.09 3.38-.54-.808.27-3.47.18-1.166 1.078.09zm-.898-1.346.27-.09.18.27-.36.269-.18-.09zm-.809-5.712.36-.269.27.27-.09.358-.36.18v.269l-.09.18-.18-.09zm.27 4.636.09.448-.09.27-.27.179-.36-.09-.179-.359.18-.448.27-.18zm-.989-2.064.18-.09.18.09v.449l-.27.09-.18-.09zm-.359 7.238.45-.18-.18 1.705-.899-.09.45-.359zm-.779-3.649h.27l.09.359-.36.359.09.359.18.448-.54-.448zm-.808 3.918.449-.09-.09.359-.36.269-.18-.09-.089-.18zm-.27 2.243 1.797.18-.898.717-.989-.628zm-.809-9.84h.36l.09.539-.54.269-.898-.538h.629zm-.988-1.585.18-.09.36.27-.45.27-.18-.09zm.09 7.477 1.348-.359-.18.539-.36-.27-.988.987zm.988 4.755-.36.27h-.448l.27-.36.448-.18zm-1.797 14.624-.09-.18.09-.268.63-.09.628.09-.629.538zm1.438 2.752.629 1.704-.09.36-.54.089-.359-1.525zm.45 5.472-.09.808-.36.448-.36-.09.09-.717.36-.449-.63-1.794.99-.359.538.27.18.986zm1.706-7.865.63 1.077.898.359.18-.18-.27-1.166.719.628-.09 1.974-2.336-2.423-.899.628-.18-.718.18-.717zm-.27-.807.09-.449.45-.359.539.18.18.538-.18.18-.27-.09zm-.359 4.456-.539-.898.36-.807.449-.27.45.09.179.45zm.959 2.78-.18-.179.09-.448.18-.09.18.09.09.269zm.988-2.422-.45.36-.179-.539.36-.449.449.09zm1.078 2.423-.449-.27-.09-.448.45.18.27.358zm.989-2.692h-.27l-.18-.18v-.268l.27-.09.27.09zm0-1.256-.63-.538-.179-.628.45-.18.718.808zm1.168 1.167h-.36l.18-.539.36-.448.09.628zm-.54-2.483-.449-.269-.449-.987.27-.448h.808l.63.628.09.538zm1.438-1.435.18-.09.18.09.18.359-.27.448zm1.049 2.602-.36-.09-.36-.897.27-.359.36-.09.36.987zm.449-4.127h-1.348l-.36 1.076-.988-.448-1.707.628-.539-.36-.09-.537-1.437-1.615-3.744.986-.45-.269.36-.807h.27l.718-.628.899.359 1.168-.18.27-.269.09-.807.718-.09.36 1.436.628.179.18-.449.36.718.359.18.36-.18.09-.718.449-.269V35.5l.269-.36-.54-1.435h-.718l-.36-.538.09-.538-.359-.27h-.45l.09.629-.359.358-.449-.269v-2.243l-.27-.18v-.358h-.539l.09-.09-2.246-.807-.63.269-.808-1.346v-.449l.36-.269.18.09v.18l.269-.36v-.448l.629-.987 1.168.18.45-.898.09.718-.54 1.077.27.987-.18.18.808.627.36-.359-.36-.269-.09-.449.72-.179-.54-.807.09-.27h.36l.898.808.18.897.27-.538.538-.27v-.448h-.539l-.449-.27.18-.268-.09-.27-.36-.269-.09-.538.63-.987.18.718-.54.359 1.078 1.525.54-.18.449.18-.27.449h-.629l.72.358.988-.358.27-.898.718.987-.09.808-.45.09-.089.09-.719.089-.629-.538-.629-.09-.27-.27-.988.808.09.718.719.27.27-.629.629-.18-.36.808.45.628.718.09v-.09l.09-.09v-.897l.719-.359.27 1.526.898.358-.18.898.18.448-1.797 1.077-.18.449 2.696.269.18.538-.81.449-.718 1.884 1.887 1.076v.18zm-7.488-4.546.45.18-.54.358-1.078-.897-.09-.27.45-.896-.899-.449.09-.448.27-.09 1.078.359.808-.36-.808 1.885zm-.18 1.256v.18l-.09.448-.449.09v-.449l.27-.359zm-1.257-.628.09.449-.45.448h-.629l-.18-.18v-1.076l.36-.538.36.718zm4.552 1.346-.09.987-1.617-1.884v-.449l.18-.09.18.09.808.18-.27.807zm4.463 1.316-.899-.449.809-.448.898.358zm.988-2.393-.719.27-.36-.27.09-.18.72-.268.27.179zm.63-.269-.36-.27.36-.089h.269l.09.09zm.538-1.346-.45.449h-.448l-.45-.628.63-.449.449-.18.27.18zm.09.808.36-.718-.45-1.256.27-.449h.449l.45-.269h.179l.629-.807-.719-2.782.27-.358.539.269v.269l.45.538-.27.628.18.449-.09.448 1.437.539-1.707.538-.09.449.27.179-.54.18-.09.269.09.269.54.09.18.358h.359l.27.18 1.077-.36v-.537l.36-.27.45.18.179-.27v-.358h-.45l-.269-.18.27-.358 2.066-.18v-.359h.09l.629-1.615-.18-.18v-.268l1.348-.539.18.27-.18.179.27.18h.359l.629.448-.18.897.72.36-.54.089-.809-.449-.718.18-.18-.18-.45.538.27.36.18-.36h.36l.089.539.629-.36.18.09v.18l-.63.718-.628.09.36.179.179.449h.36l.179-.718.45.09.179-.27.36-.09.449.18.27.359-.45.09-.27-.36-1.168.719v.717l-.36-.18v-.537l-.358-.18-.18-.448-.18-.09v-.09H48.7l-.27.538.45.18.09.538-.54-.359-.449.36-.09.538h.09l.09.09h.629l.18.538-.45.179-.449-.18-.45.808-1.077-.09-.989-1.435-.27.448v1.526l-.449.09-.898-1.077-.809-.09-.808 1.346h-.09v-.987zm3.834-3.11-.18.897-.629-.27-.27.629-.718-.09 1.078-.718.36-.449zm3.953 3.648-.36.449-.089-.36.09-.448zm-.898.628-.899.718-.809-.538-.539.09-.449-.27.27-1.077.629 1.077zm-4.583.18-.27.627-.359-.538.36-.718zm19.678 14.175-.719.628-.988.449-1.438.179-3.025.18-5.54.179-7.07.09-1.167-.09-.63-.359-.359-.538-.18-.987V47.46l.18-2.153v-1.615l-.09-1.436v-1.973l.09-.898.27-.358.809-.36 1.078-.179h.539l1.348-.09h5.271l1.527-.09 4.014-.179 1.258.09.629.09 1.348.448 1.437.898 1.168 1.166.54.628.718 1.256.27 1.256.09 1.256-.09.538-.27 1.436-.629 1.346-.36.538z"/><path d="M61.699 31.76v-.09l-.09.09zm63.825-20.067.629.18.09-.09h.089l-.089-.718-.27.27-.629.09z"/><path d="m85.839 62.743.18.987.27.628.628.449 1.078.179 3.025.18 7.698-.45h1.437l4.643.36h6.17l1.437-.09 4.643-.359 1.437-.09 4.732.36h1.438l11.711-.36.449-.358.359-.629.09-.897.36-4.814.09-1.436-.27-4.905-.09-.986-.359-.539-.539-.269-3.205-.359-1.348-.09h-1.348l-6.349.36h-1.438l-6.349-.36-4.823.36h-1.437l-4.912-.18-.988-.09-.36-.359-.269-.628-.09-.897v-1.974l.09-1.435.269-2.243.09-1.346.27-.628.449-.27 1.078-.089 1.528-.09 3.564.27h1.437l5.721.179 7.158-.449 1.438.09 4.013.449h1.797l.899-.18.629-.448.359-.628.18-1.077.18-2.691-.18-2.064v-2.93l-.09-1.526-.18-1.525-.09-.987-.269-.538-.539-.45-.989-.178-2.755-.18-10.004.538h-8.476l-2.845.18-2.875-.18-.989-.269-.359-.448-.18-.628-.09-.987-.09-1.526v-1.435l.18-2.153.18-.987.09-.538.449-.45.899-.179.718-.09h1.348l4.014.27 4.642.18h1.438l4.552-.18h1.438l8.416.18 1.438-.09h.718l1.079-.18.449-.359.359-.628.18-1.076.09-1.346-.09-1.346-.09-2.243V7.028l.18-2.243V2.363l-.18-1.167-.18-.628-.539-.448-1.258-.27h-2.246l-3.025.27-1.527.09L115.25.03h-1.437l-5.361.359h-1.438l-5.361-.36h-1.438l-5.45.09-5.811-.358-1.168.18-.72.089-.448.359-.27.718-.09 1.256-.27 4.635v1.346l-.18 2.691v2.154l.09 1.435.27 4.725.09 1.436-.36 4.725v7.596l-.179 4.815.09 1.435.27 4.726.09 1.435-.09 4.725v1.436l-.36 4.725v1.346l-.09 1.345.09 1.436.18 2.063zm47.112-9.72h.18v.27l-.09.09-.09-.09zm-.808 1.675.09.18-.09.18h-.09l-.18-.36zm.179 1.526.54.269.179-.09.27.18.18.09-.09.268-.27.18-.269.628h-.18l-.27-.18V57.3l-.269-.18-.27.09-.449.898h-.09l-.449 1.166.449-1.794.449-.27zm-.988-2.243h.09l.09.179-.09.09h-.18l-.09-.09zm-.629 2.242.09-.09.539.18v.27l-.09.09-.539-.18zm-2.216 3.56-.45-.18-.089-.27.629.36zm.269-4.457.09-.18.18.09-.18.27h-.09l-.09.448-.179-.358zm-1.527 1.077h.09l.359.359-.449-.18zm.988.987.18.18h-1.078l-.18-.45zm-3.414 3.38.09-.09h.089l.18.358-.09.36-.269-.36zm-1.677-3.56v-.179h.179v1.077l-.449-.539zm0 3.47.179.179v.09l-.179.09-.27-.09zm-2.786-1.944v-.09l.36.27h.089l.09.089h.36l.269-.18.27-.09-.18.898-.09-.09h-.09v-.09l-.269-.09v-.09h-.449l-.09.09-.09-.09-.18.18.09.09h.18l-.27.449-.359-.18v-.359l-.809-1.256v-.18l.09-.089.988.808zm-.898-3.41.179.718-.269-.09.09-.269-.54-.538zm-2.576 5.712-1.078-.538-.629.628v-.449l.539-.628h.179l.45.27.179-.539h.27l.09.18-.27.628zm-2.786-3.2.09-.269 1.168-.269-.269-.359v-.18l.269-.089.539.449-.089.628.359.09.18-.18.539.359-.18.449-.269.179-.36-.538-1.258-.449-.808.718-.18.717-.36-1.166zm-3.294.898.09.09.269-.09.09.18-.18.178-.449-.09-.18.18-.269-.09v-.179l.269-.18zm-.989-.808.18-.09.27.09.09.18-.09.179-.45.09zm-.898-2.153.09-.09v-.09l.09.36h-.18zm-.899.449.18-.09.09.09v.269l-.18.09-.09-.09zm-1.078 4.097v.448l-.629.36-.449-.719.539-.09.27-.179zm-1.138-2.572.629.18-.539.448-.449-.09-.09-.359zm-.09 3.559h.36l.179.179-.09.18-.359.09-.449-.18zm-1.258-3.38.27.27-.27.358-.09-.359zm-.179 2.213.089-.269.27.09.09.269-.09.27-.27.089-.089-.09.089-.18zM91.02 57.48l-.539-.18.54-1.256h.359l.18.27v.089l-.09.09-.18.807zm-.988-2.154.09-.18 1.258-.089-.27.27-.36.09zm1.887 4.815-.54.09v-.27l.36-.268h.27l.09.18zm.27-3.469.539-.18.898.27v.359l-.36.18-.988.089zm1.168 4.725h-.27l-.18-.448.18-.449.27.449zm.269-2.482-.54-.09.18-.448.54-.18.18.09.09.27zm.809-.09-.18-.09-.09-.179h.36l.09.09zm.539 1.854h-.18l-.09-.09v-.179h.09l.18.18zm.689-.897-.18.09-.27-.18v-.269l.18-.179h.27l.09.27zm-.45-.957v-.269h.27v.27zm.45-1.525-.36.18-.27.717-1.617-2.422-.898.18-.18-.36.18-.269 1.168.27.988 1.256.63.179.09-.09-.27-1.076.718.628zm-2.306-2.243.09-.448.538-.36.54.18.18.538-.18.18-.36-.09zm3.294 5.353h-.27l-.27-.18.54-.448.719-.269zm-.36-1.674V57.3h.45l.36.27-.18.717zm1.618.18-.18-.18.45-.27zm0-1.436.18.179v.09l-.09.09-.27-.09-.09-.18-.27.09-.538-1.884.18-.538h.808v.09h.09l.27.358.359 1.256zm.09-2.871-1.707.628-.63-.27-.449-1.345-1.078-.808-3.744 1.077-.449-.27.36-.807h.359l.629-.718.898.45 1.258-.27.09-.09.18-.987.719-.09.36 1.436.628.09.18-.36.36.719.359.18.359-.18.09-.808.45-.269-.09-.449.269-.269-.54-1.525h-.718l-.36-.449.09-.538-.36-.269-.359.09v.538l-.27.449-.538-.36v-2.152l-.27-.27v-.269h-.539v-.18l-1.797-.717-.988.359-.809-1.346v-.449l.27-.269.18.09.09.18.269-.36-.09-.448.629-.987 1.078.18.45-.987.179.718-.54 1.166.36.897-.18.27.72.537h.09l.359-.358-.45-.27v-.448l.63-.18-.54-.717.09-.36.63.18.898 1.436.18-.539.538-.18-.09-.537-.449.09-.449-.27.09-.269-.09-.27-.36-.268-.09-.539.63-.986.18.628-.54.448 1.079 1.436.629-.18.359.18-.18.448-.719.09-.27.538-.448.27-.09.179h-.18v.807l.719.27.27-.718.628-.18-.359.808.45.628.808.09v-1.077l.809-.359.18.538-.18.628 1.078.628v1.346l-1.707 1.077-.09.448 2.606.18.179.628-.808.448-.63 1.884 1.887 1.077v.09h-1.347l-.36 1.166-.898-.448zm-7.518-25.42-.18.179-.359.09-.09-.18.09-.27h.27zm-.18-17.406.18-.27.54.629-.45-.09zm2.786 37.742.45.269-.54.359-1.168-1.167.45-.897-.9-.359v-.448l.27-.18 1.168.359.72-.449-.81 1.974zm-.18 1.525-.09.448-.449.09v-.449l.27-.358.18.09zm-1.258-.808.09.449-.45.448h-.538l-.18-.179-.09-1.077.36-.538.359.718zm4.553 1.256-.09.987-1.707-2.332.18-.09.269.09.809.179-.27.807zM91.2 36.336l-.898 1.077.09-.987 1.257-.36-.09.54zm.36 4.725-.36.27h-.45l.27-.36.45-.179zm4.013-31.52.27.268-1.169.449-.18-.449.09-.448.18-.09.27.18v.09zm4.942 39.086-.36.628h.09l-1.168.09-.36-.359 1.348-.897-.09-2.422.989 1.166-.539 1.166zm.868 3.5-.719.538-.898-.36.719-.538zm-.539-40.703-.359-.18v-.358h.269l.27.269h.449zm0-2.333h-.269v.09h-.54l-.09-.359.45-.09h.359l.18.27zm-.239 31.97-.09.359-.18.09-.18-.18h-.449l-.36.27h-.18v.179l-.179.09-.18.807h.09l.18-.449.36-.179v.987l-.72.09-.269-.18-.09-.269-2.695-1.166v-.27l2.246.09.18-.269 1.527-.269v-.538l.36-.36zm-.899 4.008h-1.078l.45-.539zm-1.258-1.346v.807l-.719.18-.36-.808.18-.448.18-.718zm-2.516-5.174.36-.18.27.18v.27zm1.168 1.525.09-.18.18-.089.27.09.18.269-.09.18h-.54zm1.258-1.346.36-.269h.449l.09.718-.27.718-.539-.539zm1.348-23.207-.09-.359.36.539zm-.18-7.656-.27.09-.179-.09-.09-.269.36-.538.27.538zm-.449 2.752.18.09.09.179-.09.18h-.36l-.09-.18.09-.18zm-.09 25.18.36.27-.09.538-.18.09-.09.18-.36.179-.09-.449v-.538zm-.808-5.353-.36-.09-.09-.448.27-.718.45.27.179.448zm-.45-6.43-.36-.09-.089-.448.09-.09v-.09l.27-.268.18.269.179.448zm-.09 10.797-.09 2.243-.359.269h-.539l-.27-.538-.988.448.27 3.38-.63-.808-.09-.807.36-3.828 1.079.09.269-.36zm-2.336-6.879-.09.36-.359.179-.09.448-.18-.09v-.897l.45-.269zm-.18-11.693v-.27l.27-.268.45.09v.358l-.27.18zm-.329 16.06.36.269.09.718-.36.09h-.36l-.18-.36.09-.448zm1.228 1.614-.36.09-.09-.18.09-.268.27-.09.18.27zM94.884 22.4l.09.807-.27.09-.09-.18.09-.358-.36-.539zm-.45 8.134v.449l-.179.09-.27-.09.09-.449.18-.09zm0 7.028.18.359-.18.538-.09.808-.898-.09.45-.449.09-1.076zm-.359 2.781-.898.718-.989-.538.09-.27zm5.182 15.073.36.808-.27.717.359-.09.09.09-.27.18-.27-.09.09-.09zm2.216 4.097-.629.09-.359-.449h-.45l-.449.449-.18.897-.09.09-.269-.09.09-.807-.09-.09.719-1.884h.269l.36.897-.18.18.27.179.988-.18-.09.09.27.27zm-.359-1.316.269-.448.27.448zm.539-44.62v.09l-.36-.18.09-.09-.269-.089-.09-.269.09-.09h.269l.09.18-.09.18v.089l.09-.09h.18l.09.18zm-.18-3.858.449-.448.36.359-.36.359zm.719 1.257.09.269-.09.09-.359-.18zm.449 49.165-.719-.538.45-.18.449.18.09.448zm.989-3.469-.54.18-.269-.18.09-.18h.179l.27-.179zm-.989-44.62-.18-.628.27.18.629-.09.359.269zm1.618-2.602h-.36l.18-.628.269.27zm1.707 3.05h-.09v.09l-.809-.269-.179-.807 1.347.359.09.359zm.09-1.345-.18-.09v-.359l.269-.09.27.18zm.958-1.166-.539.358-.36-.09-.269-.268.18-.808-.18-.269.09-.18h.179l.629.539.27.359zm-.869-1.765.09-.269.45-.27.089.27.899.449h-1.438zm1.228 4.097-.269-.269v-.538l.09-.09-.09-.269.269-.18.18.18-.09.449.18.717zm1.438-.987-.09-.358-1.078-.629-.09-.358.449-.18 1.079.27.089-.09h.09zm2.067-.358-.809-.18-.27-.718.27-.359 1.168.987zm1.228.897-.45.09-.269-.27.359-.807.36-.09.179.359zm2.785 1.166-.18.09-.179-.18.09-.18.269-.089.09.18zm2.067-.27h-.18v-.268l.09-.09h.18zm1.587.808h-.09l-.269-.358.09-.36.269.27.09.359zm2.246-1.256.09-.628-.269-.09-.899.898-1.258-.36.899-.179-.27-.717-.359-.09-.18.27-.359-.629h-.09v-.09h-.36l-.449.628-.269-.628-2.786-.448 1.528.987-.45.269-.539-.09-.449.18v.538l-1.168-1.077.269-.538.45-.27.179-.807-.089-.09.089-.627h.809v.09h.09l-.539.896 1.797-.179.09-.718.359-.18v.09l.09-.179-.09-.09v-.179l-.09-.09-.359.27-.449-.45.629-.627v-.27l-.18-.269.359.09.27.808 1.438.807-.36.27.09.538h.719l.269-.27.629.45.18.717.809-.27.09-.179.628-.09.809.36-.988 1.704.539.718.359.09v.358h-.898zm-7.697-3.858.18-.269.269.18-.09.18h-.269zm1.617-.418.539-.897.54.179-.45.27-.269.986zm8.327 5.981-.989-.359.09-.18.18-.09.898.36zm-.539-2.243v-.09l.089-.09.27.18-.18.18zm.718.808h-.269l-.09-.09.18-.27.269.18zm.15-1.257-.449-.179-.09-.27 1.078.18zm1.528 1.167-.18.09-.359-.09v-.09l.359-.18.18.18zm-.809-1.436v-.269l.27-.269.539.18.089.358-.269.18h-.359zm5.361-.448-.449-.09-.09-.09.09-.18.449-.179.449.09zm.18-5.982.18-.179.808.27.45-.36-.45 1.436.809.807h-.539l-.809-.538-.09-.27.27-.627-.629-.27zm-.809-.538.18.09v.448l-.359-.269zm0 .897.09.18.359.18.09.268-.269.36h-.449l-.09-.09-.09-.808zm-.06 3.56.809.358.539-.09-1.887 1.436.36.628-.54.09-.449-.18 1.528-1.346.09-.359-.09-.09-.899.09zm-1.347.986.089-.359.36-.359v.449l-.18.269zm.269-4.994.27.18-.09.448-.18.18-.269.089-.09-.718zm-.988 2.063h.629l.449.36.09.448-.36.269-.269.18-.629-.898zm-.18 1.256.539.539-.18.358-.449-.269-.18-.538zm.27 3.56.359.358-.09.449-.539.179-.449-.359-.18.09-.449-.09v-.09h-.36l-.269-.269.179-.269.36-.09.269-.628-.359-.628-1.078-.09-.18-.448.18-.27 1.707.18zm-3.235-6.61.359.628.45-.897.898.359.449.897-.539.807-.449.18v.628l.18.18v.358l.179.18v.179l-.179.09-.18-.09-.359.09-.45.897h-1.348l-.449-.449.09-.538.18-.18.179.18 1.258-.18v-.358l.54-.539-.18-.359.18-.717-.27-.18h-.359l-.27-.538zm-10.183.18v-.36l.179-.269.27.18h.269l.54.897 1.168-.538.179.09-.359-.36h-.27v-.179l.18-.27 1.707-.448.629.449.27.718.269.09.27-.09-.36-1.615v.09h-.089l-.09-.09.359-.18.809.09 1.437 1.794.54.18.359.448-1.797 1.436v.09l.27.448.269-.359 1.887-.717.18.269-.09.359.09.09.359-.09.18.179-1.168.807-.09 1.077-.36.18-.359-.18-.27-.449-.539-.179-1.168-.538-.09-1.077-.988-.359v.808l.27.269-.27.269-.539.09-.359-.449v-.718l-.45-.628h-.09l.09-.09.09-.448-.18-.449-.269-.179-1.977 2.333-.809-.18.719-.717.27-1.077h-.629l-.449.359v.359l-.27.359v.179l-.27.09-.089-.09.089-.27.18-.089.09-1.077zm-.899-.18h.09l.449.269-.269.18-.36-.36zm.09 1.346-.539-.09.18-.18h.269zm-1.767-2.602.629.269.269-.09.629.36-.539.089-.359-.18h-1.168zm-1.348 1.704h1.977l-.18.898-.809.448-.089.18-.18-.09.09-.808-.36-.09-.179.09-.45-.358zm-1.348-1.704.27-.09-.09.359-.18.09-.09-.09zm-1.078.269.27-.18h.179l.09.09-.18.27-.359.269zm.449.987-.179.359-.18-.36.18-.268zm-3.923-1.166h.269l.629.986.989.09-.629.628-.989-.897-.359-.628zm-2.426.09.179.179v.18h-.269l-.09-.36zm-2.846.807.18-.27h1.258l-.27-.358.27-.36.18.719 1.437.807-.808 1.705.179.359h.719l.899-.539.539-.987.359-.09.36.27.09.628h.269l.539-.449 1.168.539.539-.45-.269-.268v-.27l.449-.179.36.27.539-.09.808.807.45-.718.898 1.256-.269.449 1.168 1.166.629-.538v-.987l.449-.359.539.718.539.09.18-.27 1.078.45h-.899l-.539.358-.089.987-.36.27V9.3l.09.09.359.09.539-.45.27.18.09.27-.629.537-1.078.09-.36-.717-.539-.18-.18-.538h-.089v-.09l-.899.808-.359-.18.359-1.256h-.719l-.269.897-.36.18-.09-.09v-.359l.36-.359-.09-.269-.27-.09-.539-.717.09-.539h-.359l-.27.27-.539-.18-.539.18v.538l-2.845.807-2.516-.807-.449-.987h-.36l-.27-.18.63-.18.269-.537-.09-.27-.36-.09-.538-.538h-.45l-.09.27-.269.09-.18-.18v-.27zm-.27 1.974.27.269.09 1.794-.539-.538.27-.539-.54-.269zm-.718-2.423.18.718-.72-.718-.179.09-.09.09-.09-.36zm-.09 3.589h-.27l-.269-.18v-.09l.09-.089.27.09zm-.808 4.097.628.09.72.718-.09.179-.18.09-.09.448-.45.09v-.09h-.18l-.628-1.256-.09-.269.27-.09zm-.899-4.277-.629-.448 1.258-.09.09.18zm.54-1.794h-.09l-.27-.18v-.269l.449.27zm-1.05-1.346.36-.09.36.45v.448l-1.528.987zm-1.437.36.18-.09.18.09v.268l-.18.09-.18-.18zm1.078 13.218.09.897-.629.448h-.09l-.09.09-.359-.18-.09-.448zm-1.617 16.239.36-.09.09.359-.36.359.18.359.09.448-.54-.448zm-.18 3.738-.09.359-.27.269h-.179l-.09-.18.18-.358zm-.898-23.656.09-.09.09-.358h.09l.09.09-.09.179h-.09v.09l-.18.179zm-.27 1.167.36.179.18.359-.09.449-.27.09-.18-.27.09-.359-.09-.18v-.089h-.18zm-.18 15.61-.539.27-.898-.449h.629l.36-.359.449.09zm-2.306-22.13.27-.18.539.09.09-.269.539-.448h.629l.09.09v.089l-1.707 1.077-.45-.27zm-.539-1.675h.18l.18.18-.09.269-.18-.09-.18-.269zm-.539 52.904.63-.18.538-1.883.27.359h.719l.27.538-.45.897-1.078.27-.54.627-.628.18-.09-.27z"/><path d="M103.45 7.686h.18l-.18-.27h-.27v-.089h-.179l-.18.18.359.269zm1.078-.269.09-.18-.27-.269h-.089l-.09.449.449.18zm12.879-1.884-.09.359.599.269.09-.36-.359-.268v-.09zm-.359-.27.449-.269v-.359l-.36.18-.269.359h.09zm27.974 59.813.808.09h6.62l4.372.269.719-.09 1.078-.18.899-.448.809-.897 3.654-4.456.898-1.077 3.474-4.635.54-.898-.18-.628-.899-.269-2.516-.18-1.976.18h-1.348l-4.193.09h-1.348l-2.067-.09h-1.437l-.719.09h-1.078l-.45.27-.539.896-2.156 4.726-.719 1.255-2.695 5.354v.269l.089.269.27.09zm16.802-5.353.09-.09h.18l.09.18-.09.089h-.18l-.09-.09zm-1.437-1.167.539.36-.27.806h-.18l.09-.628-.179-.269zm-.09 2.064.09-.09.179.09.09.09v.09l-.09.089-.269-.18zm-11.262 1.076h-.359v-.09l.09-.09.179-.089.09.09zm1.707-1.525h.45l-.09-.538.359.359-.808.628zm-.089-1.615.089-.18.36-.089v.09l-.18.269h-.18zm.539 2.602-1.438.449-.359-.18v-.448l.269-.18.27.09zm-1.528.957-.09-.18h.27v.09l.09.09zm1.258-.508h.18l.179-.09.09.27-.09.178-.449.18zm.719 1.046-.449.09.089-.09v-.18l.18-.089.27.18zm.809-6.34-.09-.09.09-.358.269-.09.36.628-.09.449-.18.179h-.09l-.09-.09v-.628zm.449.987.359.18v.269l-.719-.09-.629.27v.089h-.269l-.18-.18v-.269l.36-.18.179.27zm-.719 2.064.359.538-.269.628-.449.09-.18-.27.09-.09zm-.359-.628.179-.27.09.18v.27h-.18zm.988 1.973-.719.539-.18-.09-.089-.27.269-.179.719-.09zm.359-.807.18-.449.36.09.269.538-.719.718zm1.408.807-.629.27.18-1.615-1.168-.718-.629.18v-.539l.179-.27.719.09-.09.09v.18l.18.09.09.179.449-.628.09.09h.18l.18.179v.18l.089.09-.089.179-.09-.09-.27.09.09.09v.09l.539.896-.09.09.27.449zm-.958-4.725v-.18l.449.09.09.36h-.09zm.868 3.11.09-.09v-.089h.09v.359h-.09v-.09zm5.122 2.842-.18.269h-.09v-.27l.27-.358zm.09-5.802.269-.18h.18l-.359 1.526.269.179-.359.27-.18-.27zm-.18 2.691h.359l.09.27-.09.09h-.449l-.09-.18v.18l-.269.089v-.18l.09-.09h.179zm-.359-2.602-.18.18-.18-.09-.09-.359.36.09zm-1.258-1.046.089-.18.27-.09.539.27-.09.269h-.359l-.36.807-.628-.807-.18.09-.09-.18.09-.18.18.09zm-.36 3.828.18.09-.09.358-.18-.09-.089-.179zm-.359-.449-.09.09h-.359l-.09-.27.179-.179.27.09zm-5.451-3.828.269-.09.719-1.076 3.474.449-.089.09.808.268.899-.358v.358l-.719.27-.629.538-.09.987.36.269-.18.449h.18v.717l-.27.449-.359.09-.18-.18h-.09l-.359.808.179.448h.45v-.18l.089-.089-.179-.18.09-.179h.179l.629.538.09.27.629.448.09-.09-.09-.179.449-.807-.09-.36-.449-.448-.09-.628.45.09.359-.18.359.09.18.27-.09.268-.359.18-.09-.18h-.27v.27l.36.358v.539l-.18.269.09.448-.18.449-.359.09.18.09-1.887-.18-.09.18h-.719v-.18l.09-.09-.449-1.076.629.807h.089l-1.617-2.751.988-.449.45.538.629.18-.45-.987.18-.18v-.268l.18-.09.09-.718-.539-.628h-.27l-.18-.18-1.078-.09-.269.18.359.27.09.269-.18.09-.988-.629-.539 1.167-.45-.09-.089-.18-.36.09.18-.628zm.179 1.346.18.09-.269.807-.45.36h-.179l-.09.089-.27-.449-.359-.09-.09-.179zm-1.707 1.047.36-.09-.27.27.539.717-.988-.09zm-.449 1.525.449-.449v.36l-.269.179h-.18zm-.18 1.256h.09l.18-.538.629-.18-1.168 1.346zm-.808-.628h.089l.36.27-.18.178-.269-.09zm-.09.897.09.27-.09.089-.18.09-.18-.18-.089-.359zm-.42 1.944.09.538-.179.27h-.27zm-.898 1.256.09-.09h.179v.18l-.089.09h-.18zm41.811 70.668-1.797-4.456-2.426-5.622-.629-1.256-2.156-4.187-2.756-5.533-.539-1.256-1.797-4.456-.539-1.256-1.977-4.366-.539-1.256-1.977-4.277-.539-1.256-1.617-4.545-.539-1.256-1.977-4.367-.539-1.256-2.246-4.187-.54-1.346-1.258-3.469-.449-1.166-.988-.718-1.528-.269-4.103-.09h-6.978l-4.104.18-1.347.269-.899.538-.449.987-1.618 3.649-.539 1.346-1.707 4.097-.629 1.435-1.977 4.008-.629 1.435-2.515 5.353-3.205 7.327-.539 1.256-2.426 4.995-.539 1.345-2.067 4.815-.539 1.346-2.336 4.994-.539 1.256-2.247 4.995-.539 1.346-.06.119h-.03l-3.204-4.516-.899-1.076-3.205-4.367-.808-1.076-3.205-4.546-.36-.718.719-.269 1.168-.269 1.168-.628 1.079-.628 1.797-.987.988-.807 1.438-1.436.808-.987.809-1.076.809-1.167.808-1.346.629-1.345.539-1.346.36-1.436.269-1.525.18-1.525.09-1.436v-1.435l-.18-1.974-.09-1.435-.269-1.436-.449-1.435-.629-1.346-.629-1.256-1.079-1.705-.808-1.166-1.258-1.794-.899-1.077-.898-.897-.989-.808-1.707-1.166-1.168-.718-1.348-.628-1.437-.538-1.348-.538-1.348-.449-1.887-.538-1.347-.27-1.528-.09h-3.384l-5.9-.358h-1.438l-6.08.359-10.633-.36-4.013-.178-1.348.09-.719.089-1.078.27-.54.717-.269 1.166-.09.538-.09 1.346.18 2.931v1.435l.09 4.815v1.436l-.18 4.725v1.436l-.27 4.814v1.436l.27 4.815v1.435l-.27 4.815v1.436l.09 4.725.09 1.435.27 4.815v1.436l-.36 4.815-.09 1.435-.179 2.333.09 1.346.09 1.256.18.897.539.359 1.078.179 4.103.269h1.438l4.103-.269 4.283.269h1.438l.988-.269.45-.448.179-1.077.09-1.436v-1.435l-.09-2.153-.09-1.436-.36-4.994-.09-1.436.18-4.904.27-1.167.719-.538 1.168-.09 2.875.18 1.078.09.54.269.629.717 2.845 3.828.808 1.077 2.516 4.097.81 1.077 2.844 3.828.81 1.076 2.844 4.008.719.718.809.358h1.168l4.013-.179h1.438l4.912.09h2.516l.18.089 1.168-.089h2.396l.629-.21 2.486-.149h1.437l5.182.269h1.437l1.348-.449.988-1.166.54-1.435 2.066-6.071.539-1.077.719-.449 1.168-.179h4.103l1.348-.09h1.348l5.361.09 6.709.179h1.438l5.361.359 1.078.09.809.18.629.897 2.755 7.506.45.987.539.628 1.168.449 5.541-.359h4.013l1.348.089 2.067.18h1.257l1.169-.18.988-.448.629-.987-.27-1.256zm-82.784-34.99-.449-.09-.18-.448.539-.36h.629zm1.977-4.007 2.516 1.166-.18.18h-.18l-.09.09-1.797-.629-.089.09-2.067.359v-.449zm-1.348-1.615.449-.18.539.09-.359.449zm1.258.359.629-.27.359.718-.269.897-.539-.448zm.899 4.575.089-.18.45.45-.18-.09h-.27v-.09zm-.09-1.615v.27l-.36.179-.179-.18v-.269l.089-.09zm-1.348.539h-.09v.269l-.629-.27h-.09v-.269h.09l.359-.448zm-.629 5.353.449.448-.18.359-.359.18-.359-.09-.09-.359zm-.27-.628v-.359l.45.09v.179l-.27.18zm.989 5.622-.36.628-.269-.538-.539-.09-.09-.448.629-.27.629.27zm.539-6.16-.809-.718h-.359l-.629-.628.09-.18h.179v-.09h.09l.809-1.076h.359l.45.359-.18.538.988.18.629-.629.539-2.242.36.807-.36 1.166zm1.707 1.525-.629.538-.359.09-.09.089-.18-.269.27-.269h.449l.539-.897zm.27-2.871.988-1.526.719.45-1.348 1.255zm1.767.179.449-.09.09.09-.09.269-.449.269-.36-.089zm.629 2.871-1.168-.359.359-.359.18.359.539-.089.719-.18zm.719-4.904-1.528-.539.988-.359.719.718zm1.437-.27h-.09l-.09.09h-.359v-.269h.09l.09-.09.269-.18.36.09zm-.449-8.403.09.718-.27.179-1.078-.359-.629.718-.09-2.602-.629-.449v-.09h-.09l-.449.09.27-.538 1.347.18.629 1.794zm-3.295-3.11-.179-.36.359-.269.27.27-.09.448-.18.09zm1.678-1.167.269.09.09.359.449.448.09.718-.719-.538-.449.09-.359-.27.179-.538zm-3.654-4.097.449-.448.18.09.089.179-.269.538-.449.359zm.089 4.546.09-.09v-.359l1.797-2.93.629.09.539 1.345-.269.18-.18.807-.898.18-.809.807-.09.359.539 1.345-1.707-1.256-.539.27.09.358-.629-.359-.45.09-.179.359.09.09v.09l.269.448-.18.359 1.348 1.615.539-.359.54.18.179.448.449.09.36-.18-.36-.538v-.449h.629l1.079 2.842.449-.09v.09l.09.09 1.707.448.899-.36.988 1.436-.27.36-.269-.18-.18.448.09.539-.359 1.525-1.079-.27-.719 1.167.45-2.602-.36-.807.09-.27-.719-.358-.359.359.449.18.09.448-.629.18.09.268h.18l.089.09v.09l.27.359-.09.359-.269.09-1.258-1.616-.18.449-.449.269.09.449.898.18-.09.268.45.628-.629 1.167h-.09l-.27.179v-.628l.629-.27-.09-.627-.808-.897-.54.18-.359-.09.09-.36.09-.09.629-.089.179-.538.45-.27v-.179l.179-.09-.179-.628-.629-.18-.18.629-.629.18.27-.718-.45-.539h-.718l.089.987-.629.449-.269-.538.09-.539-.27-.269-.898-.18.089-.358-.089-.09v-.09l.988-.807.18-.538h-.09v-.09l-1.168.448-.09.27-.899.448-.449-.359.449-1.794-.449-.808-.719.18-.359.359.359-.538-.359-.808 1.258-.628.18-1.346.539-.269zm1.168 2.213-1.078.448-.179-.717-.809.09-.449-.808 1.707.538.539.09zm-7.697 17.315.09-.269.27-.089.359.179.359-.09v.18l-.718.359zm.09 13.219-.09.359h-.09l-.179-.359.089-.09h.18zm.719-16.329h-.719l.09-.448.269-.269.36-.09.18.179h.089v.359zm-1.438-17.854.18-.18.09.09.179.718-.269-.09-.18-.179.09-.18zm.27-4.007-.36-.359.09-.18.18-.09.359.27-.09.27zm.359 2.93.27-.09.179.18-.089.09v.09l-.18.18-.18-.09-.09-.18zm1.887 1.346h-.988l-.18-.538.719-.09.629.27zm.899.898.179.359-.449.538-.899.18-.359-.36.09-.897.449-.18zm-1.797 1.884-.18-.449.719.27v.179l-.18.09zm.359 2.123 1.078-.538-.359.807-.899.18zm3.205-5.174v-.269l.269-.09.18-.448.269-.18.27.36v.538l-.539.269zm-1.857-5.532.09.09h.089l1.168 1.345-.718-.269v-.09l-1.079-.448h-.179l-.18-.27zm.868 2.602-.09.538-.359.18-.449-.09-.18-.718-.449-.897.359-.09.449.269h.09l.09.09h.09zm-1.048 1.315h1.977l.09-.986.629.269.359.538-.988.538-1.618-.09-.359.629.988.448-.808.18-1.348-1.167zm-1.078-.867-.09.27h-.27l-.359-.36v-.538l.449.18.18.448zm-2.876-5.562h.18l.719.897 1.707.359-.269.359.09.627-.54.27-.898-.36-.449-1.166-.45-.269-.179-.538zm-17.94 30.623.18.359-.54.628-.898-.089-.09.448.27.269-.54.808-.718-.628.629-.449.09-.718.449-.538v-.448l-.989-.987-.898-.359 1.438-.449.18.808.359.089.449 1.526h.18l.18-.27zm-.27-.717.09-.09h.09l.36.269h-.45zm-.359 4.366v-.179l-.18-.27v-.358h.27l.27.358v.898l-.18.179-.27-.179.18-.359zm-.719-.598h-.27l-.09.538-.179.18h-.18l-.18-.18v-.269l.9-.628.179-.449.36-.269h.09l.089.09-.18.538zm-1.707-4.037.809.179.27.718-.27.359-.72-.359-.269-.18-.18-.448zm.719 3.499h-.36l-.09-.449h.09l.27.179zm-1.078 1.046.27-.179.269.179-.09.18h-.45zm-.899-2.303-.09-.448.27-.269h.09l.09-.09.808.269.18.808-.45-.27zm-.45-1.256 1.079-.269.09.09-.809.718h-.18l-.18-.09zm.63 1.705.18.718-.27-.269-.63.089-.359-.269zm-1.947 3.469-.719 1.167.09.628-.36.628-1.527-.27 1.528-.897-.09-2.512.27.359v-.179l.359-.09.18.359-.18.269zm-.988-3.559-.18.18-.09-.09v-.09l.18-.179v.09zm-.18 1.256-.09.18-.18.09.18.089h-1.078l.45-.538.269.269.27-.269zm.719 0-.36-.358v-.449l1.528-1.077-.63 1.526-.179.358zm.808-2.601.09.269-.36.359-.448-.449.449-.269zm-2.246-5.354v-1.076l.45-.18.449.269-.45.808zm.45 1.526-.18 1.435-.63-.538v-.718l.36-.269zm-.54-9.75.54.808-.09.358-.36.18-.36-.18-.09-.358zm.09 12.411.719-.359.09-.448.449-.359.54 1.346-.09.359-.18.089-.27-.179.09-.18-1.078.27-.45.986h.09l.63-.538-.09.987-.72.09-.27-.18-.089-.269-2.785-1.346.09-.269.359-.179 1.887.359.18-.09.09-.179zm-.54 3.948-.538-.18-.36-.089-.27-.808.45-1.256.719 1.077-.09.807-.18.09zm-1.527-.449-.09.269-.18.09-.179-.269.18-.09zm-.808-6.25.449-.18.18.18v.269zm1.078 1.585.36-.269.269.089.09.27-.09.179-.27.09zm-.09-5.443.989.09-.18 2.243-.45.269-.539-.09-.18-.538h-.628l-.45.359v3.558l-.539-.807.36-3.649.18-1.166 1.168.09zm-.629-1.406.18.27-.36.269-.18-.09.09-.359zm-.958-5.891.36-.18.269.27-.09.359-.36.179v.27l-.09.178-.18-.09zm.18 4.815v.807h-.72l-.09-.359.09-.448.36-.18zm-.989-2.154.18-.09.18.09v.45l-.27.179-.18-.18zm-.539 7.417.45-.089-.18 1.704-.989-.09.54-.448zm-.809-3.648.36-.09.09.359-.36.359.09.359.09.448-.54-.448zm-.898 3.917.449-.089-.09.448-.36.18h-.179zm-.27 2.303 1.887.18-.988.717-.989-.628zm-.629-10.168.45.09v.538l-.54.18-.898-.539h.629zm-.988-1.585.27-.09.269.27-.45.269-.179-.09zm-.09 7.656 1.438-.359-.18.538-.45-.269-.988 1.077zm.898 4.725v.18l-.359.269h-.45l.36-.449.36-.09zm-2.126 15.193-.09-.18.09-.269.629-.09.629.09-.629.538zm1.408 2.841.449 2.153-.54.09-.358-1.615zm.27 5.622-.09.897-.45.449-.27-.18.09-.717.36-.449-.63-1.884 1.08-.359.538.359.18 1.076zm1.976-8.015.629 1.166.898.359.18-.179-.18-1.166.72.538-.18 2.063-2.337-2.512-.988.628-.09-.717.18-.718zm-.27-.807.09-.539.45-.269.629.18.18.628-.27.089-.27-.089zm-.988 3.648.36-.897.988-.09.18.449-1.079 1.435zm1.707 3.649-.27.089-.179-.179.18-.449.18-.089.18.089zm.899-2.303-.54.269-.09-.538.27-.359.27-.09.18.18zm.988 2.482-.45-.269-.089-.538.45.179.269.449zm.779-2.661-.18-.27.09-.269.18-.089.27.089.09.269zm.27-1.346-.54-.539-.18-.717.45-.09.629.807zm1.168 1.256-.36-.09.18-.538.45-.449.089.628zm-.45-2.602-.449-.269-.45-1.077.27-.448h.809l.629.628.09.628zm1.528-1.495.18-.09.18.09.179.448-.36.449zm.988 2.751-.27-.179-.359-.898.27-.358.27-.09.449.987zm.54-4.366v.089h-1.349l-.359 1.077-.988-.449-1.797.539-.54-.269-.09-.628-1.437-1.705-3.924.897-.449-.269.36-.807h.36l.718-.628.898.448.63-.269.628.09.27-.269.09-.898h.808l.27 1.526.629.089.27-.359.27.718.448.18.36-.18.09-.718.449-.269-.27-2.332-.719-.09-.359-.449.18-.538-.36-.359-.449.09v.628l-.36.359-.449-.359-.27-2.841h-.448v-.18l-2.247-.807-.629.269-.808-1.884.36-.269.179.089.09.18.27-.359-.09-.449.718-.986 1.168.269.54-.987.09.807-.63 1.077.27.987-.18.269.809.628.36-.449-.36-.269-.09-.448.719-.09-.54-.897.18-.269.63.179.808 1.525.18-.538.629-.18v-.448l-.989-.269.18-.269-.09-.359-.36-.269-.09-.539.72-.987.18.718-.63.359 1.079 1.525.539-.09.449.18-.27.448h-.718l-.27.539-.54.269-.089.179-.18.09v.718l.72.359.269-.718.719-.09-.45.808.45.628.808.089v-.089l.09-.09v-.897l.809-.359.18.628-.18.628.18.269.898.359-.09 1.436-1.797 1.076-.18.449 1.348.359.36-.27 1.078.27.09.538-.809.449-.719 1.884 1.887 1.256h-.09zM66.28 114.69l.36-.538.359.717.45.27.089.448-.45.449h-.628l-.18-.269.09-.359h.09zm2.666-.179.449.179-.63.359-1.077-.897.449-1.256-.899-.449v-.449l.36-.089 1.078.448.809-.448-.899 1.974zm-.27 1.226v.269l-.09.448-.449.09v-.538l.27-.269zm3.414.807-.09 1.077-1.707-2.512.18-.09.27.179.808.18-.27.807zm4.553 1.525-.898-.448.808-.538.899.448zm1.348-6.25-.18.09-.27-.269.09-.359h.36zm0-1.346-.18.18-.719-.359h1.528l.629.09-.63.448zm1.138.987.09-.269.27-.09.449.269zm1.707.897-.988-.359.629-1.076.27 1.166h.448zm.719.18h-.18l-.09-.18.18-.269v-.538l-.18-.269.27-.269.36-.09.269.269.36.09zm6.08.718-1.258-.718-.18-.359-.27.538v.269l-.718-.179-.988.359-1.258-.449-.09.18-.27-.09-.09-.269.27-.269v-.27l.18-.269v-.179l.718.538.18-.179.09-.359.27-.269.27.179v.359l-.27.269.27.359h.718l.09-.179h.18l.359-1.436-.36-1.076.54-1.167-.72.18-.359.628-1.258-.718v-1.436l2.067-1.973h-.45l-.718.807-.629.09.54-1.256-.45-.18-.45-.807h.36l.18.269h.449l.09-.09.09-.359.36-.269.179.18-.09.359h.539l.629.897 1.797.089.09-.269.45-.179-.09.359-.27.089.449.18.09 2.243-.45.448v.27l.27.089.18-.179.36.179.09.449-.27.359-.45.089-.898-.358.09-.808.808-.897-.449-1.166.18-.27h-.36v.09l-1.707 1.346-.09-.269.18-.269v-.359l-.629-.18.09 1.705.45-.09.359.18.27.628-.18.897h-.18l.18.538-.45.359v1.346l.54.359.09.359.808.448zm-3.864-3.23.09-.269.18-.09.18.09v.448l-.18.09-.18-.09zm3.774-2.841-.45.448-.179-.179.09-.449.18-.09.27.09zm1.168 4.904-.719-.09-.09-.358-.808-.09-.09-.18.18-.179.18.09.808-.987.36 1.166h.359l.09.359zm.689-1.346-.27.09-.18-.09.18-.358.18-.09.18.179zm1.078-1.854.09 2.064-.18.089-.27-.269v-2.063l.27-.359.54.09zm.36-1.704-.27.089-.27-.089-.18-.27.18-.269h.18l.45.269zm1.437 4.366-.18.09-.18-.27.27-.179.09.09zm.27-1.765h-.899l-.18-.897.45.539h.45l.269.179zm.18-2.063-.36.09v-.09l.18-.269.09.089h.09zm.718-1.794-.27-.09-.089-.18.09-.179h.18l.18.359zm.54 4.186-.18.18-.09-.09-.09-.359.09-.089.09.089.18.09zm1.138-.867h.718v.09l-.359.179zm.808 7.387-.36-.359.09-.359.18-.179.18.448zm4.044 3.499-.45-.269-.449.089-.27-.269.18-.448.36-.269h.18l.09.358.359.359zm-.809-19.648-1.078.628-1.168.448-1.977.359-5.9.359h-1.438l-4.642-.359-1.079-.179-.629-.269-.18-.539-.09-.987.18-4.904-.09-1.526-.179-1.525-.18-1.435-.09-2.064.09-.987.54-.538.628-.27 1.079-.089 4.552-.269h1.438l4.462.09 1.438.18 1.977.448 1.258.538.988.808.809 1.076.629 1.346.359 1.346.18 1.525.09 1.525-.09 1.436-.36 1.435-.628 1.346-.899 1.077zm1.408 26.078.179-.359.27-.09.269.359zm.539-44.89-.09-.358.449-.18.449.18zm1.797 4.816.09.448-.18.27-.27-.09-.629-.18-.179-.538zm-.989 34.182v-.718l.719.539.899-.09.539.359-.09.269-.539-.09-.359-.269zm3.505 12.292-2.426-.449-.09-.628.359.09.09.179 1.887.359.27.18zm0-28.022h-.09v-.18l.18-.179.449.089v.18l-.18.179h-.269zm.719 3.947v.09l-.36.179-.09-.628zm3.654 16.598.269.09-.269.09-.27-.09zm-2.696 1.166-.629.629v-.09l-.449-.718h-.09l-.09-.269 1.168-.269.18.179zm1.258 3.021-.27.449-.539-.628.449-.27.36.18zm1.527 3.29-.449-.18-.09-1.346.809.27.09.897zm4.193 1.076h-.269l-.18-.269-.629.09.36-.359.449.09.269.179zm1.258-2.751.809.09.09.359-.27.269-.539-.359zm44.148-40.882.809.538h.898l.27.18.089.538-.179.09-.27-.09-.09-.269-.269-.18h-.27l-.629-.089-.539-.538zm.629 24.015.719.09.269.986-.359-.089.18-.269zm.09-21.323.09-.27h.179l.09.36-.09.09h-.179zm-.45 24.164.09.359-.269.09-.36-.09-.718-.09.089-.718zm-.629-1.256v-.18h.18l.27.18v.359l-.27-.09zm-3.294-35.768.359-.18 2.426.36-.449.269h-1.977l-.179-.18-.18-.09zm.629 6.52.449-.718.27.18h.449l.27-.18.179.09-.09.18-1.347 1.076v-.36zm-1.078 3.738-.09.27-.36-.09v-.09l.09-.18.27-.09v.09zm-.719-7.148.449.539-.269.359-.27-.09-.18-.359zm-.809 4.815-.269.09h-.36l.27-.18zm-1.617-7.117v-.09l.269-.359.45.09v.987l.359.448-.898-.18-.27-.807zm-3.924-.987.27.269.629-.18-.36.449-.449-.09-.269-.18-.09-.268zm-1.977 2.303.45.09.359.538-.359.09-.45-.09-.179-.36zm1.079 19.199.539-1.346 2.426-6.07.898-.898.989-.269 1.168.27.898.627.45 1.167 1.797 5.263.449 1.346 1.977 6.071.359 1.166-.269.897-.719.718-1.168.359-4.193-.269h-5.631l-1.258-.18-.989-.448-.269-1.077.269-1.346 2.337-5.981zm10.183 14.176.18.089v.628l-.09.808-.539-.718zm-.599-.778v-.359l.449.628h-.269zm-4.582 1.675-1.528-.628-.449.269-.18.359-.27-.449.719-.897.899.359.359-.718h.36l.09.269-.36.808zm-2.846.718h.449l-.179.897-.629-.18-.27.628-.808-.089zm-.09-1.256-.539-.09v-.359h.36l.179.269zm.45-.957-.36.089-.359-.807.179-.18h.899l.359.27-.539.269zm-3.834 1.585.09-.27h.359l.18.359-.09.449-.449.179-.09-.179.09-.179zm-.36-2.303.09-.538.18-.09.18.09.09.448-.09.538zm-1.617-14.475.539-.448.18.807-.27.269h-.269l-.27-.269zm.09 16.419-.09.359-.359.179-1.079-.807.629-.359.719.269zm-1.617-19.26h.359l.09.27-.18.269h-.359l-.18.358-.18-.179zm-1.618 1.765h.18l.09.358-.36.18-.089-.18zm.27 3.409-.539-.09.179-.269.27.09zm-.779-1.615.36-.09.179.269-.09.449-.179.18h-.36l-.269-.27zm.33 2.871.359-.179.719.448-1.078 1.615-.36.09-.449-.269.09-.539-.449-.179-.54.09-1.258 2.691-.179-.807.359-.718 1.887-2.751.899.538zm-1.678 4.007.36-.089.269.179-.09.269-.179.09-.36-.179zm-.179-1.704.359.09.18.179-.18.269zm-.629-3.38-.27-.538.629-.718.27.18-.09.269-.449.09zm0-6.34.359-.09.18.36h-.449l-.09-.09zm0 1.615.359-.09.359.18-.179.449-.539-.09-.36-.27-.179-.448zm-.45 6.609.36.09-.809 1.256-.719-.448.539-.09zm-1.258-.089-.359.089-.18-.089.09-.18.27-.179.359.09zm.09 2.123-.988.18-.539-.808.18-.179zm-1.078-4.546 1.168.18-.269.448-.27-.358-1.168.358zm-1.138 3.739v.269l-.449.09-.36-.18zm-3.235 6.609.719-.538-.539-.628v-.18l.18-.179h.269l.719.717h.809l-1.348 1.077-.09.718.27.359-.539.089-.54-1.166zm2.426 3.738-.449.808-.449-2.602.898.718-.539.448zm-2.965-1.764.36-.18.179.09v.269l-.269.269-.36-.089zm-.898-1.795.449-.269v.718l.269.359-.089.448-.54.09-.449-.179-.09-.269zm-3.025 11.694-.899.538-.269.628-.45.269h-.09l-.089-.179.179-.539.539-.358v-1.795l.36.18.539-.18.359.449zm.269-2.423-.449-.089.269-1.436.54-.359zm.18-4.725v-.179l.18-.18.539.09.449.359-.719.179zm1.887 2.871.269.269v.449l-1.258.807-.089-.897zm-.809 4.097h-.269l.179-.538h.18l.18.179zm.899-2.063.629-.18.089.18-.269.448-.449.09zm.509 2.781-.27-.359.09-.449.359.27.09.359zm-.09-5.981-.899.179.45-1.166 1.078 2.332.629.18.18-1.077.359.718-.719 1.615zm.359-.897.27-.359.449-.09.449.359-.089.538h-.27l-.18-.179h-.359zm1.618 4.814-.18.18-.27-.09-.089-.269.179-.179h.18l.18.179zm.179-.897-.269-.448.09-.718h.359l.27.897zm.989 1.077-.449.269h-.09l-.18-.179.809-.539zm0-1.854-.27-.359v-.987l.36-.269.629.269.179 1.166zm1.977 1.495-.36.179-.18-.179v-.807l.27-.18.27.09zm0-1.675-.45.269.27-.807.18.179zm.329-1.615-.449.269-.18.449-.629-.718-1.617-.089-.36-.449.09-1.256.09-.09-.539-.987-3.385-.628-.269-.359.629-.538.269.18.719-.359.629.717h.539l.45.27.359-.09.629-.897.27.089-.27 1.705.449.269.36-.179.179.987h.36l.359-.628h.449l.629-1.884-.539-.27-.09-.538.27-.359-.18-.359-.359-.179-.18.538-.359.18-.27-.449.899-1.794-.09-.269.09-.27-.45-.179.09-.09v-.09l-1.347-1.435-.36.09-.09-.09h-.179l-.09-1.435.179-.359.36-.09.09.359.359-.18.18-.359.898-.538.809.628.719-.538-.18.628-.898.628-.09.628-.36.359.36.718.449-.09-.18-.359.18-.359.539.18.09-.27-.18-.628.27-.179.269.09.36 1.076-.18.718.359-.359.45.09.269-.359-.449-.179-.18-.359.27-.449-.18-.359.09-.448.988-.449-.179.538-.539.09.179 1.615.539.09.18.269-.359.269-.539-.269-.45.359h-.539l-.09.089-.179-.089-.27.628.449.538.45-.449.629.18-.629.449.089.628.54.448.449-.807h.809l-.09.538-.45.449.629.897-.539 1.076-1.797.09-.269.269.898.808.36-.09.718.538-.089.539h-.809l-1.258 1.166.18.449.898 1.166-1.078-.449zm3.145-7.596-.629-.179.09-.718.359-.269.449-.449.09 1.077zm.449.359.359.628-.539-.179-.359-.27zm-1.977 6.789-.539-.628.809-.09.539.628zm4.283-.18-.269.269-.18-.089v-.09l.18-.359.359-.09zm0-1.256-.359-.089-.09-.18.09-.09h.359l.09.18zm-.09-1.435-.808.179-.629-.628h-.719l-.359-.359.089-.089-.179.089-.18.539-.539.358-.449-.089v-.09l-.36-.179-.179-.449 1.437-.09.809-1.884.359 1.256-.539.449h.36l.449.269 1.348-.449v.27l.269.448zm.45-5.862-.18.18h-.18l-.09-.27-.269-.179-.36.09-.179-.09-.27.09-.449.538.719-.179-.449.717-.629-.179-.09-.269.09-.269-1.618-2.064.18-.179h.269l1.348.987.27-.09 1.258.448.269-.358.45-.09zm-.629-1.615-.27-.628.27-.628.719.18zm1.348-3.23h.449l.179.359-.539.449h-.539zm-.09 10.019 1.258-.359.449.359-1.078.269-.27.179-.269-.089zm.179 2.303.45-.09.359.359-.18.179-.359-.089zm.539 1.615h.27l.09.179-.09.179-.18.09-.179-.09zm.27 1.435-.27-.269v-.269l.809.538zm1.168 1.495-.359-.269.09-.179.629-.269.269.179.09.269zm-.539-2.572.359-.538.54-.09.089.27-.629.538zm1.887 1.944-.359-.179.359-.18h.269l.09.09zm.449-1.405-.449.538h-.449l-.45-.628.27-.359.359-.09.45-.179.269.09zm-.359-3.23-.899.449-.269.717.179.18.899-.18-.449.539-.719-.09-.18-.18-.629.18 1.797-1.795-.449-.717h1.078zm2.755 6.071-.449-.628.359-.628.36.628zm4.104-.269-.899-.449-.539.09-.449-.269-.09-.449h.09v-.449l.269-.269.629 1.077 1.887-.09zm.628-2.213-.269.179-.27.718-.718-.18-.36.18-.809-1.436-.359-.089-.18.987.18.269-.18.807-.449.09-.988-1.077h-.809l-.809 1.436h-.089v-1.077l-.45-.269h-.449l.359-.718-.449-1.346.18-.448 1.168-.359.539-.807-.719-2.931.18-.359.629.269v.269l.539.538-.359.718.179.897.18.18.629.09.09.538-1.168.269-.09.449.359.179-.629.269-.09.269.09.359h.629l.18.359 1.258.09.539-.269v-.628l.359-.27.45.09.179-.269v-.269h-.449l-.359-.269.269-.359h1.708l.179-.18h.27v-.448l.09.09.629-1.705-.18-.269v-.269l.988-.628h.36l.179.269v.089l-.179.09.269.18h.36l.718.448-.089.897.718.449-.539.09-.898-.449-.449.18-.45-.09-.359.718.18.089.179-.269h.36l.09.449h.269l.359-.359.27.09v.269l-.629.717-.719.18.45.09.179.448h.36l.179-.718.18.09.539-.359h.36l.718.449-.449.179-.359-.448-1.168.807.179.449-.179.359-.36-.27v-.538l-.449-.179-.359-.628-.629.089-.18.539.539.179.09.538-.629-.358-.449.358-.09.629h.808l.27.628-.449.179-.45-.179zm.809 1.226-.09-.359.09-.449.36.359zm.449-.867-.089-.629.629-.179.269.09.629.179-.809.539zm2.606 1.764-.18-.09-.089-.179.179-.09v-.359l-.449-.628h-.27l-.269-.179v.089l.269.18.09.269h-.719l-.089-.628.179-.179h.18l.988-2.154.18.09-.09 1.705.09.089h.09l.27 1.257h.359l.27.358zm.689-2.213v-.449l.18-.089.269.269-.09.269-.179.09zm1.438 1.136-.629.09-.539-.269.449-.359.539-.09.18.269zm0-2.033h-.27l.18-.359.09-.09.089.269zm1.887 2.303-.809-.629.359-.089h.45l.179.359zm.988-1.316-1.797-.18-.18-.269.09-.449.449-.179-.359-.718-2.696.09.629-.449 3.654.27-.09.897.27.269v.718zm.18-3.589-.629.179.359-.359.719.18.09.269h-.27zm.898 2.333h-.09l-.09.089-.179-.359h.359zm-.359-34.811.179-.27.54.27-.18.538-.18.09zm1.138 34.183-.36.089-.269-.089-.09-.27.09-.269.269-.089.36.089.18.269zm.449-25.241-.359.18-.27-.09-.269-.718.089-.539.45.449h.359l.27.27zm2.696 3.11.269.359-.09.449h-.179l-.09.09-.09-.45zm-1.708 5.712v.538l.27.27-.09.269-.359.089-.18-.448zm-.269 3.2.09-.09h.359l.09.18-.09.089h-.359zm.809 3.499-.45-.269.09-.359.629.09.27.089-.18.359zm.539 1.077-.18-.359.09-.359.09-.09h.09l.089.359zm.09-7.507v-.359l.359.09v.18l-.18.269zm.988 3.918-.27-.09-.089-.269h-.27l-.09-.09v-.089h.449l.45.359zm1.318 6.789-.18-.27.18-.358.359-.18.18.09.269.628v.449l-.449-.359zm.719 5.712h.269l.18.179v.18l-.09.089-.449-.179zm1.168 5.173-.18.18-.359-.538.089-.359-.089-.09v-.179l-.27-.18.09-.269.359.09.09.359h.09l.18.358zm1.347-11.783h.18l.09.09v.18l-.09.089h-.09l-.179-.269zm1.079 2.333-.09.09-.449-.09-.27-.269-1.078-.179-.09-.27.09-.179.359-.09.27.449.269-.09.989.538zm.449 9.002.09-.359.539.09.09.448-.09.09-.359.09h-.18l-.18-.269zm.809 3.499-.539.09-.27-.27.539-.717.09-.449.449.628zm.868-6.25-.359.089-.27-.179v-.269l-.449-.628v-.18l.09-.09.719.18.629.538zm1.258 9.091-.18-.09v-.269l-.539-.269.45-.09.269.269.18.27zm.809-8.314-.18-.179h.27l.179.179zm1.258-1.854h-.09v.09h-.09l.09-.09.09-.09zm.719 9.54-.36.09-.269-.539.089-.359.27.18.27.269zM219.27 13.607h-2.576v110.324h2.576zm37.828.09h-2.187v27.245h2.187zm6.948 16.209c0-1.136.12-2.153.39-3.11a7.9 7.9 0 0 1 1.168-2.482 5.6 5.6 0 0 1 2.006-1.615c.809-.389 1.767-.569 2.876-.569s2.006.18 2.785.539a5.1 5.1 0 0 1 1.977 1.615 7.3 7.3 0 0 1 1.168 2.572c.269 1.016.389 2.153.389 3.439v10.617h2.187V29.727c0-1.047-.09-2.064-.3-3.05a10.8 10.8 0 0 0-.958-2.662 7.6 7.6 0 0 0-1.618-2.124 6.7 6.7 0 0 0-2.306-1.375c-.898-.33-1.887-.479-3.025-.479-1.587 0-3.025.33-4.313 1.017-1.078.568-1.947 1.435-2.665 2.542v-3.11h-1.977v20.426h2.186V29.876zm30.819 8.434q-1.482 1.076-4.043 1.076t-4.313-1.076c-1.168-.718-1.917-1.675-2.246-2.901l-2.246.389c.359 1.764 1.317 3.17 2.845 4.156 1.527.987 3.474 1.496 5.84 1.496s4.403-.538 5.811-1.615c1.407-1.077 2.126-2.572 2.126-4.456 0-1.047-.239-1.914-.689-2.632s-1.228-1.346-2.336-1.854c-1.108-.538-2.635-1.047-4.612-1.555-1.618-.419-2.875-.778-3.744-1.137-.899-.359-1.498-.747-1.857-1.166s-.509-.927-.509-1.555c0-1.047.509-1.914 1.497-2.572s2.277-.957 3.864-.927c1.677 0 3.055.389 4.163 1.166 1.108.778 1.767 1.795 1.977 3.11l2.246-.418c-.12-1.166-.539-2.213-1.288-3.08-.748-.898-1.737-1.586-2.935-2.094s-2.576-.748-4.103-.748c-1.528 0-2.845.24-4.013.718-1.169.479-2.067 1.137-2.696 2.004a4.87 4.87 0 0 0-.958 2.96c0 .928.209 1.735.658 2.363.45.658 1.198 1.226 2.247 1.735 1.078.508 2.546 1.017 4.433 1.525 1.797.478 3.144.927 4.043 1.286.898.359 1.527.777 1.827 1.196.299.419.449.987.449 1.675 0 1.256-.509 2.243-1.497 2.96zm12.19-23.507h-2.186v5.683h-4.582v1.973h4.582v11.335c0 .957 0 1.794.06 2.512.03.718.24 1.465.569 2.183a4.05 4.05 0 0 0 1.857 1.944c.839.419 1.767.658 2.845.718q1.573.09 3.235-.27v-1.973q-2.29.358-3.774.09c-.988-.18-1.707-.718-2.156-1.585a3.8 3.8 0 0 1-.39-1.556V22.46h6.35v-1.973h-6.35v-5.683zm11.771-1.226h-2.186v2.782h2.186zm0 6.909h-2.186v20.426h2.186zm7.398 13.338c0 .957 0 1.794.06 2.512.03.718.239 1.465.569 2.183a4.05 4.05 0 0 0 1.857 1.944c.809.419 1.767.658 2.845.718q1.572.09 3.235-.27v-1.973q-2.292.358-3.774.09c-.988-.18-1.707-.718-2.156-1.586a3.8 3.8 0 0 1-.39-1.555V22.49h6.35v-1.973h-6.35v-5.683h-2.186v5.683h-4.583v1.973h4.583v11.335zm12.699 3.559a7.5 7.5 0 0 0 1.617 2.123 6.7 6.7 0 0 0 2.307 1.376c.898.329 1.887.478 3.025.478 1.587 0 3.025-.329 4.313-1.017 1.078-.568 1.946-1.435 2.665-2.542v3.11h1.977V20.516h-2.186V31.55c0 1.136-.12 2.153-.39 3.11a7.9 7.9 0 0 1-1.168 2.482c-.509.718-1.198 1.227-2.007 1.615-.808.39-1.767.569-2.875.569s-2.007-.18-2.785-.539a5.1 5.1 0 0 1-1.977-1.615c-.539-.717-.929-1.555-1.168-2.572-.27-1.016-.39-2.153-.39-3.439V20.546h-2.186V31.73c0 1.047.09 2.064.3 3.05.209.958.539 1.855.958 2.663zm23.152-3.559c0 .957 0 1.794.06 2.512.03.718.24 1.465.569 2.183a4.05 4.05 0 0 0 1.857 1.944c.809.419 1.767.658 2.845.718q1.573.09 3.235-.27v-1.973q-2.29.358-3.774.09c-.988-.18-1.707-.718-2.156-1.586a3.8 3.8 0 0 1-.39-1.555V22.49h6.35v-1.973h-6.35v-5.683h-2.186v5.683h-4.583v1.973h4.583v11.335zm14.227 6.28c1.407.927 3.144 1.376 5.181 1.376s3.714-.449 5.152-1.376c1.437-.927 2.515-2.183 3.264-3.798s1.108-3.5 1.108-5.652c0-2.154-.359-3.978-1.108-5.593s-1.827-2.87-3.234-3.798-3.145-1.375-5.182-1.375-3.714.448-5.121 1.345-2.516 2.153-3.265 3.768-1.138 3.5-1.138 5.623.359 3.977 1.108 5.622c.749 1.615 1.827 2.901 3.235 3.828zm-1.228-13.906c.509-1.286 1.317-2.303 2.366-3.05 1.048-.748 2.396-1.107 4.043-1.107q3.594 0 5.391 2.332 1.797 2.334 1.797 6.28c0 2.632-.599 4.666-1.797 6.281s-2.995 2.422-5.421 2.422-4.163-.807-5.361-2.392c-1.228-1.585-1.827-3.709-1.827-6.31 0-1.675.27-3.17.779-4.486zm-98.359 45.756V54.968h-5.241v16.986q0 1.346-.449 2.423c-.3.717-.719 1.375-1.228 1.884a5.6 5.6 0 0 1-1.857 1.226c-.719.299-1.498.448-2.307.448s-1.557-.15-2.276-.418a5.3 5.3 0 0 1-1.887-1.227 5.8 5.8 0 0 1-1.258-1.884c-.299-.717-.449-1.555-.449-2.452V54.968h-5.241v17.016c0 2.183.479 4.067 1.407 5.682.929 1.615 2.247 2.871 3.894 3.768 1.677.898 3.594 1.346 5.81 1.346 2.217 0 4.134-.448 5.811-1.346a9.64 9.64 0 0 0 3.894-3.768c.928-1.615 1.407-3.499 1.407-5.682zm23.302-5.324a8.5 8.5 0 0 0-1.198-2.601c-.569-.837-1.348-1.525-2.366-2.064-1.018-.538-2.306-.807-3.924-.807-2.006 0-3.684.448-5.001 1.316a9.5 9.5 0 0 0-1.648 1.405v-2.123h-4.582v20.426h5.241V71.835c0-1.286.15-2.303.42-3.05.269-.778.658-1.347 1.078-1.736a4 4 0 0 1 1.407-.807c.51-.15.989-.21 1.408-.21 1.108 0 1.947.24 2.546.748.599.479 1.018 1.107 1.288 1.825.269.717.419 1.465.479 2.183q.09 1.077.09 1.794v9.66h5.241V70.788c0-.33 0-.897-.09-1.615a19 19 0 0 0-.449-2.482zm10.423-4.874h-5.152v20.426h5.152zm0-7.386h-5.152v4.545h5.152zm15.574 27.812 7.428-20.426h-5.151l-4.852 14.146-4.852-14.146h-5.152l7.428 20.426zm24.47-.987c1.647-1.047 2.875-2.482 3.654-4.336l-5.151-1.466c-.39.838-.929 1.466-1.648 1.914-.718.449-1.587.658-2.605.658-1.618 0-2.816-.508-3.654-1.555-.599-.748-.989-1.764-1.138-2.99h14.346c.21-2.483-.03-4.636-.749-6.46-.719-1.825-1.827-3.26-3.324-4.247q-2.247-1.525-5.481-1.525c-2.007 0-3.804.448-5.362 1.375-1.557.928-2.785 2.184-3.654 3.858-.898 1.645-1.317 3.59-1.317 5.832 0 2.034.449 3.858 1.347 5.443.899 1.585 2.157 2.811 3.744 3.738 1.588.898 3.445 1.346 5.541 1.346 1.977 0 3.774-.508 5.451-1.555zm-5.541-15.551c1.498 0 2.576.448 3.235 1.375.449.599.719 1.466.869 2.572h-8.986c.21-.927.51-1.734.989-2.332.838-1.077 2.126-1.585 3.863-1.585zm19.648 2.363a4.8 4.8 0 0 1 1.527-1.107c.599-.3 1.288-.449 2.037-.509q1.124-.09 1.977.18v-4.815c-.629-.09-1.228-.09-1.857-.06s-1.228.15-1.797.33a7.8 7.8 0 0 0-1.617.717 5.4 5.4 0 0 0-1.618 1.435 9 9 0 0 0-.569.868v-3.29h-4.552v20.426h5.181V71.775c0-.778.12-1.496.33-2.124a4.4 4.4 0 0 1 .958-1.614m16.713 14.743q3.998 0 6.289-1.794c1.528-1.196 2.276-2.841 2.276-4.935 0-1.046-.209-1.974-.658-2.721-.42-.748-1.109-1.406-2.067-1.944-.929-.538-2.186-1.017-3.744-1.406-1.587-.388-2.785-.717-3.564-.987-.779-.239-1.288-.508-1.528-.747a1.22 1.22 0 0 1-.359-.897c0-.599.3-1.047.869-1.376s1.347-.449 2.276-.389c.958.09 1.737.33 2.306.778q.854.673.988 1.794l5.272-.957a6.6 6.6 0 0 0-1.408-3.23 7.5 7.5 0 0 0-2.995-2.093c-1.228-.479-2.666-.748-4.253-.748s-3.085.27-4.313.778-2.156 1.256-2.845 2.243-1.019 2.093-1.019 3.409c0 1.047.21 1.944.659 2.662.45.747 1.168 1.375 2.157 1.914.988.538 2.336 1.016 3.983 1.435 1.468.389 2.576.718 3.265.957q1.033.36 1.348.718c.209.24.299.568.299.987 0 .628-.239 1.136-.749 1.495q-.764.538-2.156.538c-1.138 0-2.067-.269-2.815-.807q-1.123-.807-1.438-2.243l-5.271.807c.329 2.124 1.317 3.769 2.875 4.935 1.587 1.166 3.654 1.734 6.23 1.734zm17.7-28.38h-5.151v4.545h5.151zm0 7.386h-5.151v20.426h5.151zm11.471-5.682h-5.151v5.682h-3.474v3.978h3.474v7.805c0 1.226 0 2.303.03 3.29 0 .957.299 1.914.809 2.84a5 5 0 0 0 2.426 2.154c1.078.449 2.276.688 3.624.718a20 20 0 0 0 4.163-.36v-4.276c-1.198.15-2.306.21-3.325.15-.988-.06-1.737-.449-2.186-1.166-.24-.39-.36-.898-.39-1.526-.029-.628 0-1.345 0-2.153v-7.476h5.901v-3.978h-5.901zm26.238 8.822c-.719-1.376-1.768-2.333-3.175-2.87-1.408-.569-2.995-.838-4.822-.838-2.456 0-4.403.538-5.841 1.585-1.437 1.047-2.396 2.422-2.905 4.127l4.672 1.465c.33-.927.899-1.585 1.738-1.944.808-.358 1.617-.538 2.366-.538 1.377 0 2.336.27 2.905.838.449.448.719 1.106.838 1.943-.868.12-1.707.24-2.485.36-1.318.209-2.516.388-3.565.627-1.048.21-1.946.449-2.695.748-1.108.419-1.977.897-2.636 1.495a5.3 5.3 0 0 0-1.407 2.064q-.45 1.166-.45 2.602c0 1.136.27 2.183.779 3.11s1.288 1.675 2.306 2.243 2.246.837 3.714.837c1.767 0 3.235-.299 4.373-.927.898-.478 1.767-1.226 2.576-2.183v2.512h4.522v-12.47c0-.928-.03-1.765-.12-2.543a6.5 6.5 0 0 0-.718-2.273zm-4.823 11.066c-.149.298-.389.657-.778 1.076-.39.419-.899.808-1.558 1.136-.659.33-1.437.509-2.396.509q-.899 0-1.527-.27c-.42-.179-.749-.418-.989-.777-.239-.329-.359-.747-.359-1.196 0-.329.06-.658.21-.927.149-.27.359-.538.689-.778.299-.239.718-.448 1.227-.658.45-.15.959-.329 1.528-.448.569-.15 1.348-.3 2.306-.449.599-.12 1.348-.24 2.187-.389 0 .36 0 .748-.06 1.197a5.5 5.5 0 0 1-.45 1.944zm20.367-14.266c-.629.03-1.228.15-1.797.33a8 8 0 0 0-1.618.717 5.4 5.4 0 0 0-1.617 1.435c-.21.27-.389.569-.569.868v-3.29h-4.552v20.426h5.181V71.775c0-.778.12-1.496.329-2.124s.54-1.166.959-1.614a4.8 4.8 0 0 1 1.527-1.107c.599-.3 1.288-.449 2.037-.509q1.124-.09 1.977.18v-4.815c-.629-.09-1.228-.09-1.857-.06m10.123.06h-5.151v20.426h5.151zm0-7.386h-5.151v4.545h5.151zm23.332 11.992c-.869-1.615-2.097-2.901-3.654-3.798s-3.354-1.376-5.421-1.376-3.804.448-5.361 1.375c-1.558.898-2.786 2.184-3.654 3.799-.869 1.615-1.318 3.499-1.318 5.622s.419 3.978 1.288 5.592c.868 1.615 2.066 2.901 3.624 3.799 1.557.927 3.354 1.375 5.421 1.375s3.834-.448 5.421-1.376 2.785-2.183 3.654-3.798c.869-1.614 1.318-3.499 1.318-5.622s-.449-3.977-1.318-5.592m-5.391 9.898c-.809 1.107-2.037 1.675-3.714 1.675s-2.815-.538-3.654-1.615-1.228-2.542-1.228-4.366c0-1.196.18-2.213.509-3.11.36-.897.869-1.585 1.588-2.094.718-.508 1.647-.747 2.755-.747q2.426 0 3.684 1.615c.839 1.076 1.228 2.542 1.228 4.336s-.419 3.2-1.228 4.307zm-211.153 29.877c-.599-.897-1.288-1.675-2.157-2.303-1.318-.927-2.935-1.406-4.822-1.406s-3.444.479-4.732 1.406c-1.318.957-2.306 2.243-2.995 3.858s-1.048 3.439-1.048 5.473.359 3.887 1.048 5.502 1.707 2.931 3.055 3.888 2.965 1.436 4.882 1.436 3.414-.479 4.672-1.436c.929-.688 1.677-1.585 2.306-2.632v3.499h1.977V96.208h-2.186zm-.569 11.514c-.51 1.315-1.258 2.362-2.277 3.11-1.018.777-2.276 1.136-3.803 1.136s-2.756-.388-3.774-1.166-1.767-1.824-2.276-3.14c-.51-1.316-.779-2.811-.779-4.456s.239-3.11.749-4.426a6.9 6.9 0 0 1 2.246-3.111c1.018-.747 2.306-1.136 3.834-1.136 1.527 0 2.755.359 3.773 1.107 1.019.747 1.768 1.764 2.277 3.08s.748 2.811.748 4.486-.239 3.17-.748 4.486zm24.08-3.798h1.228c.03-2.393-.3-4.456-1.048-6.161-.749-1.705-1.827-2.991-3.235-3.918s-3.115-1.346-5.092-1.346-3.654.449-5.061 1.316c-1.408.868-2.516 2.124-3.295 3.739s-1.168 3.558-1.168 5.771.389 4.098 1.168 5.713c.779 1.614 1.887 2.841 3.325 3.738 1.437.867 3.115 1.316 5.061 1.316 1.947 0 3.774-.479 5.332-1.436s2.725-2.333 3.564-4.097l-1.977-.867c-.689 1.375-1.617 2.422-2.815 3.17s-2.546 1.106-4.134 1.106c-2.276 0-4.043-.747-5.301-2.273-1.168-1.405-1.767-3.319-1.857-5.771zm-13.448-7.058c1.258-1.525 3.055-2.273 5.361-2.273 2.307 0 3.954.718 5.152 2.183 1.018 1.256 1.617 2.961 1.827 5.174h-14.137c.18-2.124.779-3.828 1.827-5.084zm20.636-11.155h-2.186v27.812h2.186zm15.814.568h-2.186v27.244h2.186zm18.689 7.656c-1.317-.957-2.905-1.406-4.762-1.406s-3.504.479-4.822 1.406a8.3 8.3 0 0 0-2.156 2.303v-9.93h-2.187v27.245h1.977v-3.499a9.2 9.2 0 0 0 2.276 2.632q1.932 1.436 4.673 1.436c1.827 0 3.564-.479 4.882-1.436s2.336-2.243 3.055-3.888c.718-1.645 1.048-3.469 1.048-5.502s-.33-3.828-1.018-5.473c-.689-1.615-1.678-2.901-2.995-3.858zm.929 13.787c-.509 1.315-1.258 2.362-2.276 3.14-1.019.777-2.247 1.166-3.774 1.166s-2.786-.389-3.804-1.136c-1.018-.748-1.767-1.795-2.276-3.111-.509-1.315-.749-2.811-.749-4.485s.24-3.171.749-4.486c.509-1.316 1.258-2.333 2.276-3.081s2.276-1.106 3.774-1.106c1.497 0 2.845.389 3.834 1.136 1.018.778 1.767 1.795 2.246 3.11.509 1.316.749 2.782.749 4.427s-.27 3.14-.779 4.456zm23.482-3.798h1.228c.03-2.393-.3-4.456-1.049-6.161s-1.827-2.991-3.234-3.918-3.115-1.346-5.092-1.346-3.654.449-5.062 1.316c-1.407.868-2.516 2.124-3.294 3.739-.779 1.615-1.168 3.558-1.168 5.771s.389 4.098 1.168 5.713c.778 1.614 1.887 2.841 3.324 3.738 1.438.867 3.115 1.316 5.062 1.316s3.774-.479 5.331-1.436 2.756-2.333 3.564-4.097l-1.976-.867c-.689 1.375-1.618 2.422-2.816 3.17-1.168.747-2.576 1.106-4.133 1.106-2.276 0-4.043-.747-5.301-2.273-1.168-1.405-1.767-3.319-1.857-5.771zm-13.448-7.058c1.258-1.525 3.055-2.273 5.361-2.273s3.953.718 5.151 2.183c1.019 1.256 1.618 2.961 1.827 5.174h-14.136c.179-2.124.778-3.828 1.827-5.084zm23.631-3.499c-.719.269-1.378.628-1.917 1.136a7.5 7.5 0 0 0-1.078 1.226c-.12.18-.24.389-.36.598v-3.229h-1.976v20.425h2.186v-10.108c0-.837.03-1.675.12-2.572.09-.867.299-1.704.599-2.512.299-.807.808-1.495 1.527-2.123.809-.658 1.648-1.047 2.546-1.167.899-.119 1.767-.089 2.576.12v-2.063c-.599-.15-1.288-.21-2.037-.18s-1.497.209-2.216.449zm15.694-3.589 2.007-5.473h-2.007l-2.037 5.473zm6.379 6.908c-.509-1.316-1.407-2.362-2.665-3.08s-2.875-1.107-4.732-1.107c-2.217 0-4.014.509-5.421 1.496s-2.367 2.422-2.816 4.276l2.246.628c.42-1.465 1.109-2.542 2.127-3.23 1.018-.687 2.276-1.046 3.834-1.046 2.216 0 3.744.538 4.642 1.615.839 1.017 1.228 2.542 1.228 4.545-.599.09-1.288.15-2.097.27-1.168.149-2.426.299-3.713.478-1.288.18-2.516.389-3.624.658a9.8 9.8 0 0 0-2.696 1.077 5.6 5.6 0 0 0-1.947 1.884c-.479.777-.719 1.764-.719 2.901 0 1.076.27 2.063.779 2.99s1.288 1.645 2.336 2.213 2.366.838 3.924.838c2.096 0 3.923-.509 5.481-1.496a7.56 7.56 0 0 0 2.486-2.661v3.588h1.976v-12.74c0-.717-.03-1.465-.119-2.183-.09-.717-.21-1.345-.45-1.914zm-1.856 9.361a7.55 7.55 0 0 1-1.228 3.2 6.45 6.45 0 0 1-2.546 2.093c-1.049.509-2.277.748-3.654.748-1.228 0-2.187-.209-2.906-.598a3.83 3.83 0 0 1-1.557-1.525c-.299-.628-.449-1.227-.449-1.855 0-.837.209-1.525.599-2.063.389-.538.898-.957 1.497-1.286s1.198-.538 1.797-.718a35 35 0 0 1 3.235-.628c1.198-.149 2.336-.299 3.504-.419.719-.059 1.378-.149 2.007-.209v1.047c0 .807-.09 1.525-.21 2.213z"/></g><defs><clipPath id="a"><path fill="#fff" d="M0 0h487v137H0z"/></clipPath></defs></svg>